<svg width="32" height="32" viewBox="0 0 32 32" fill="none" xmlns="http://www.w3.org/2000/svg">
<path d="M21.2178 0C22.5377 0 23.8046 0.522101 24.7412 1.45215L30.5215 7.19434L30.6943 7.37402C31.5312 8.2925 31.998 9.49273 31.998 10.7412V28.6914C31.998 29.5707 31.6462 30.4126 31.0225 31.0322C30.3988 31.6516 29.554 31.999 28.6748 31.999H13C12.4479 31.9988 12.0001 31.5511 12 30.999C12 30.4469 12.4479 29.9992 13 29.999H28.6748C29.0278 29.999 29.3657 29.8591 29.6133 29.6133C29.8605 29.3676 29.998 29.0358 29.998 28.6914V10.7412C29.998 10.042 29.7543 9.3678 29.3135 8.83301L29.1123 8.61328L23.332 2.87109C22.7701 2.31313 22.0097 2 21.2178 2H7.76562C7.45694 2.00009 7.15995 2.10665 6.9248 2.29785L6.82715 2.38574C6.58009 2.63143 6.44241 2.9633 6.44238 3.30762V14C6.44233 14.5522 5.99464 15 5.44238 15C4.8903 14.9998 4.44243 14.5521 4.44238 14V3.30762C4.44241 2.42841 4.79431 1.58649 5.41797 0.966797L5.53809 0.853516C6.14791 0.305139 6.94159 9.72838e-05 7.76562 0H21.2178ZM7.96973 16.0537C8.52198 16.0537 8.96969 16.5015 8.96973 17.0537V22.9766H14.9395L15.042 22.9814C15.5461 23.0328 15.9394 23.4589 15.9395 23.9766C15.9395 24.4943 15.5461 24.9204 15.042 24.9717L14.9395 24.9766H8.96973V30.8994C8.96968 31.4517 8.52198 31.8994 7.96973 31.8994C7.41747 31.8994 6.96977 31.4517 6.96973 30.8994V24.9766H1C0.447715 24.9766 0 24.5288 0 23.9766C9.2775e-06 23.4243 0.447721 22.9766 1 22.9766H6.96973V17.0537C6.96977 16.5015 7.41747 16.0537 7.96973 16.0537Z" fill="black"/>
</svg>
