<svg width="34" height="34" viewBox="0 0 34 34" fill="none" xmlns="http://www.w3.org/2000/svg">
<path d="M13.873 18.5703L14.2627 18.5947C16.2068 18.7475 18.0891 19.3567 19.7539 20.374L20.083 20.582C21.7117 21.6493 23.065 23.0871 24.0283 24.7783L24.2158 25.1191C25.1228 26.8361 25.6084 28.7452 25.6289 30.6885V32.0586C25.6286 32.5781 25.2071 32.9999 24.6875 33H1.94141C1.42177 33 1.00027 32.5782 1 32.0586V30.6885L1.00977 30.3008C1.09198 28.3627 1.6374 26.4693 2.60059 24.7783L2.79785 24.4434C3.81248 22.7867 5.20931 21.3915 6.87402 20.374L7.20996 20.1758C8.90319 19.213 10.804 18.6621 12.7559 18.5703L13.3125 18.5566H13.3164L13.873 18.5703ZM23.3271 18.8506L23.4229 18.8662L23.9092 18.9883C25.0376 19.2942 26.1216 19.7592 27.126 20.373L27.4551 20.5811C29.0839 21.6483 30.436 23.0862 31.3994 24.7773L31.5869 25.1182C32.4942 26.8354 32.9794 28.744 33 30.6875V32.0586C32.9999 32.5782 32.5783 32.9999 32.0586 33H27.0039C26.4845 32.9997 26.0626 32.5781 26.0625 32.0586C26.0628 31.5392 26.4845 31.1185 27.0039 31.1182H31.1182V30.709L31.1094 30.3799C31.0398 28.7413 30.5795 27.1406 29.7646 25.71C28.9496 24.2791 27.804 23.0608 26.4238 22.1562L26.1445 21.9795C25.2934 21.4593 24.3741 21.0652 23.417 20.8057L23.0039 20.7021L22.9111 20.6758C22.4596 20.523 22.1877 20.05 22.2959 19.5752C22.4043 19.1004 22.854 18.7924 23.3271 18.8506ZM12.8447 20.4502C11.1887 20.5281 9.57597 20.9955 8.14062 21.8115L7.85547 21.9795C6.44425 22.842 5.26202 24.0247 4.40332 25.4268L4.23535 25.71C3.36618 27.236 2.90124 28.9566 2.88281 30.709V31.1182H23.7461V30.709L23.7383 30.3799C23.6734 28.8507 23.2679 27.3538 22.5518 25.998L22.3936 25.71C21.5785 24.279 20.432 23.0618 19.0518 22.1572L18.7734 21.9795C17.3621 21.117 15.7649 20.6004 14.1152 20.4707L13.7842 20.4502C13.6272 20.4428 13.47 20.4388 13.3135 20.4385L12.8447 20.4502ZM13.3154 1C17.3181 1.00058 20.5752 4.22491 20.5752 8.21582C20.5751 12.2067 17.318 15.4311 13.3154 15.4316C9.31232 15.4316 6.05576 12.207 6.05566 8.21582C6.05566 4.22455 9.31227 1 13.3154 1ZM20.6865 1C24.6894 1.00036 27.9463 4.22477 27.9463 8.21582C27.9462 12.2068 24.6893 15.4313 20.6865 15.4316C20.1668 15.4316 19.7452 15.01 19.7451 14.4902C19.7451 13.9705 20.1667 13.5488 20.6865 13.5488C23.6621 13.5485 26.0634 11.1548 26.0635 8.21582C26.0635 5.27674 23.6622 2.88317 20.6865 2.88281C20.1668 2.88281 19.7452 2.4611 19.7451 1.94141C19.7451 1.42161 20.1667 1 20.6865 1ZM13.3154 2.88281C10.3395 2.88281 7.9375 5.27652 7.9375 8.21582C7.93759 11.155 10.3395 13.5488 13.3154 13.5488C16.2908 13.5482 18.6923 11.1547 18.6924 8.21582C18.6924 5.27687 16.2909 2.88339 13.3154 2.88281Z" fill="black"/>
<path d="M13.873 18.5703L13.8856 18.3706L13.878 18.3704L13.873 18.5703ZM14.2627 18.5947L14.2784 18.3953L14.2752 18.3951L14.2627 18.5947ZM19.7539 20.374L19.8608 20.2049L19.8582 20.2034L19.7539 20.374ZM20.083 20.582L20.1926 20.4147L20.1899 20.413L20.083 20.582ZM24.0283 24.7783L24.2036 24.6819L24.2021 24.6793L24.0283 24.7783ZM24.2158 25.1191L24.3927 25.0257L24.3911 25.0227L24.2158 25.1191ZM25.6289 30.6885H25.8289L25.8289 30.6864L25.6289 30.6885ZM25.6289 32.0586L25.8289 32.0587V32.0586H25.6289ZM24.6875 33V33.2H24.6875L24.6875 33ZM1 32.0586H0.8L0.8 32.0587L1 32.0586ZM1 30.6885L0.8 30.6834V30.6885H1ZM1.00977 30.3008L0.809916 30.2923L0.809829 30.2957L1.00977 30.3008ZM2.60059 24.7783L2.42823 24.6768L2.4268 24.6793L2.60059 24.7783ZM2.79785 24.4434L2.62727 24.3389L2.62552 24.3419L2.79785 24.4434ZM6.87402 20.374L6.77237 20.2018L6.76972 20.2034L6.87402 20.374ZM7.20996 20.1758L7.11109 20.0019L7.10832 20.0035L7.20996 20.1758ZM12.7559 18.5703L12.7509 18.3703L12.7465 18.3705L12.7559 18.5703ZM13.3125 18.5566V18.3566L13.3076 18.3567L13.3125 18.5566ZM13.3164 18.5566L13.3213 18.3566H13.3164V18.5566ZM23.3271 18.8506L23.3594 18.653L23.3516 18.6521L23.3271 18.8506ZM23.4229 18.8662L23.4715 18.6722C23.4661 18.6709 23.4606 18.6697 23.4551 18.6688L23.4229 18.8662ZM23.9092 18.9883L23.9615 18.7952L23.9579 18.7943L23.9092 18.9883ZM27.126 20.373L27.2328 20.204L27.2303 20.2024L27.126 20.373ZM27.4551 20.5811L27.5647 20.4137L27.5619 20.412L27.4551 20.5811ZM31.3994 24.7773L31.5747 24.6809L31.5732 24.6783L31.3994 24.7773ZM31.5869 25.1182L31.7638 25.0247L31.7621 25.0218L31.5869 25.1182ZM33 30.6875H33.2L33.2 30.6854L33 30.6875ZM33 32.0586L33.2 32.0586V32.0586H33ZM32.0586 33V33.2H32.0586L32.0586 33ZM27.0039 33L27.0038 33.2H27.0039V33ZM26.0625 32.0586L25.8625 32.0585V32.0586L26.0625 32.0586ZM27.0039 31.1182V30.9182H27.0038L27.0039 31.1182ZM31.1182 31.1182V31.3182C31.2286 31.3182 31.3182 31.2286 31.3182 31.1182H31.1182ZM31.1182 30.709H31.3182L31.3181 30.7036L31.1182 30.709ZM31.1094 30.3799L31.3093 30.3745L31.3092 30.3714L31.1094 30.3799ZM29.7646 25.71L29.9384 25.611L29.9384 25.611L29.7646 25.71ZM26.4238 22.1562L26.5335 21.989L26.5308 21.9873L26.4238 22.1562ZM26.1445 21.9795L26.2515 21.8105L26.2488 21.8088L26.1445 21.9795ZM23.417 20.8057L23.4693 20.6126L23.4656 20.6117L23.417 20.8057ZM23.0039 20.7021L22.9492 20.8946L22.9553 20.8962L23.0039 20.7021ZM22.9111 20.6758L22.8469 20.8655L22.8565 20.8682L22.9111 20.6758ZM22.2959 19.5752L22.1009 19.5307L22.1009 19.5308L22.2959 19.5752ZM12.8447 20.4502L12.8397 20.2502L12.8353 20.2504L12.8447 20.4502ZM8.14062 21.8115L8.04177 21.6376L8.03912 21.6392L8.14062 21.8115ZM7.85547 21.9795L7.75395 21.8071L7.75117 21.8088L7.85547 21.9795ZM4.40332 25.4268L4.23275 25.3223L4.2313 25.3247L4.40332 25.4268ZM4.23535 25.71L4.06331 25.6079L4.06156 25.611L4.23535 25.71ZM2.88281 30.709L2.68281 30.7069V30.709H2.88281ZM2.88281 31.1182H2.68281C2.68281 31.2286 2.77236 31.3182 2.88281 31.3182V31.1182ZM23.7461 31.1182V31.3182C23.8566 31.3182 23.9461 31.2286 23.9461 31.1182H23.7461ZM23.7461 30.709H23.9461L23.946 30.7042L23.7461 30.709ZM23.7383 30.3799L23.9383 30.3751L23.9381 30.3714L23.7383 30.3799ZM22.5518 25.998L22.7286 25.9046L22.7271 25.9018L22.5518 25.998ZM22.3936 25.71L22.5689 25.6137L22.5673 25.611L22.3936 25.71ZM19.0518 22.1572L19.1614 21.9899L19.1594 21.9887L19.0518 22.1572ZM18.7734 21.9795L18.8811 21.8109L18.8777 21.8088L18.7734 21.9795ZM14.1152 20.4707L14.1309 20.2713L14.1276 20.2711L14.1152 20.4707ZM13.7842 20.4502L13.7965 20.2506L13.7936 20.2504L13.7842 20.4502ZM13.3135 20.4385L13.3139 20.2384L13.3085 20.2385L13.3135 20.4385ZM13.3154 1L13.3155 0.8H13.3154V1ZM20.5752 8.21582L20.7752 8.21583V8.21582H20.5752ZM13.3154 15.4316V15.6316H13.3155L13.3154 15.4316ZM6.05566 8.21582H5.85566V8.21583L6.05566 8.21582ZM20.6865 1L20.6865 0.8H20.6865V1ZM27.9463 8.21582L28.1463 8.21583V8.21582H27.9463ZM20.6865 15.4316V15.6316H20.6865L20.6865 15.4316ZM19.7451 14.4902L19.5451 14.4902V14.4903L19.7451 14.4902ZM20.6865 13.5488V13.7488H20.6865L20.6865 13.5488ZM26.0635 8.21582L26.2635 8.21583V8.21582H26.0635ZM20.6865 2.88281L20.6865 2.68281H20.6865V2.88281ZM19.7451 1.94141H19.5451V1.94145L19.7451 1.94141ZM13.3154 2.88281L13.3155 2.68281H13.3154V2.88281ZM7.9375 8.21582H7.7375V8.21583L7.9375 8.21582ZM13.3154 13.5488V13.7488H13.3155L13.3154 13.5488ZM18.6924 8.21582L18.8924 8.21583V8.21582H18.6924ZM13.873 18.5703L13.8605 18.7699L14.2502 18.7943L14.2627 18.5947L14.2752 18.3951L13.8856 18.3707L13.873 18.5703ZM14.2627 18.5947L14.247 18.7941C16.1598 18.9444 18.0117 19.5438 19.6496 20.5447L19.7539 20.374L19.8582 20.2034C18.1664 19.1696 16.2538 18.5506 14.2784 18.3953L14.2627 18.5947ZM19.7539 20.374L19.6471 20.5431L19.9762 20.7511L20.083 20.582L20.1899 20.413L19.8608 20.205L19.7539 20.374ZM20.083 20.582L19.9734 20.7493C21.5757 21.7993 22.907 23.2137 23.8545 24.8773L24.0283 24.7783L24.2021 24.6793C23.223 22.9605 21.8477 21.4993 20.1926 20.4148L20.083 20.582ZM24.0283 24.7783L23.8531 24.8747L24.0406 25.2155L24.2158 25.1191L24.3911 25.0227L24.2036 24.6819L24.0283 24.7783ZM24.2158 25.1191L24.039 25.2126C24.9311 26.9015 25.4087 28.7793 25.4289 30.6906L25.6289 30.6885L25.8289 30.6864C25.8081 28.7112 25.3145 26.7708 24.3927 25.0257L24.2158 25.1191ZM25.6289 30.6885H25.4289V32.0586H25.6289H25.8289V30.6885H25.6289ZM25.6289 32.0586L25.4289 32.0585C25.4287 32.4677 25.0965 32.7999 24.6875 32.8L24.6875 33L24.6875 33.2C25.3176 33.1999 25.8286 32.6885 25.8289 32.0587L25.6289 32.0586ZM24.6875 33V32.8H1.94141V33V33.2H24.6875V33ZM1.94141 33V32.8C1.53233 32.8 1.20021 32.4678 1.2 32.0585L1 32.0586L0.8 32.0587C0.800326 32.6885 1.31121 33.2 1.94141 33.2V33ZM1 32.0586H1.2V30.6885H1H0.8V32.0586H1ZM1 30.6885L1.19994 30.6935L1.2097 30.3058L1.00977 30.3008L0.809829 30.2957L0.800063 30.6834L1 30.6885ZM1.00977 30.3008L1.20959 30.3093C1.29045 28.403 1.82689 26.5407 2.77437 24.8773L2.60059 24.7783L2.4268 24.6793C1.44791 26.3978 0.893519 28.3223 0.809945 30.2923L1.00977 30.3008ZM2.60059 24.7783L2.77292 24.8798L2.97019 24.5449L2.79785 24.4434L2.62552 24.3419L2.42825 24.6768L2.60059 24.7783ZM2.79785 24.4434L2.96841 24.5478C3.96646 22.9182 5.34055 21.5457 6.97832 20.5447L6.87402 20.374L6.76972 20.2034C5.07807 21.2373 3.65851 22.6551 2.6273 24.3389L2.79785 24.4434ZM6.87402 20.374L6.97567 20.5463L7.31161 20.348L7.20996 20.1758L7.10832 20.0035L6.77238 20.2018L6.87402 20.374ZM7.20996 20.1758L7.30882 20.3496C8.97465 19.4024 10.8448 18.8604 12.7653 18.7701L12.7559 18.5703L12.7465 18.3705C10.7632 18.4638 8.83174 19.0235 7.1111 20.0019L7.20996 20.1758ZM12.7559 18.5703L12.7608 18.7703L13.3174 18.7566L13.3125 18.5566L13.3076 18.3567L12.7509 18.3704L12.7559 18.5703ZM13.3125 18.5566V18.7566H13.3164V18.5566V18.3566H13.3125V18.5566ZM13.3164 18.5566L13.3115 18.7566L13.8681 18.7703L13.873 18.5703L13.878 18.3704L13.3213 18.3567L13.3164 18.5566ZM23.3271 18.8506L23.2949 19.048L23.3906 19.0636L23.4229 18.8662L23.4551 18.6688L23.3594 18.6532L23.3271 18.8506ZM23.4229 18.8662L23.3742 19.0602L23.8605 19.1823L23.9092 18.9883L23.9579 18.7943L23.4715 18.6722L23.4229 18.8662ZM23.9092 18.9883L23.8568 19.1813C24.9671 19.4823 26.0336 19.9398 27.0217 20.5437L27.126 20.373L27.2303 20.2024C26.2097 19.5786 25.1081 19.1061 23.9615 18.7952L23.9092 18.9883ZM27.126 20.373L27.0191 20.5421L27.3482 20.7501L27.4551 20.5811L27.5619 20.412L27.2328 20.204L27.126 20.373ZM27.4551 20.5811L27.3455 20.7483C28.9478 21.7983 30.278 23.2127 31.2256 24.8763L31.3994 24.7773L31.5732 24.6783C30.5941 22.9596 29.2199 21.4983 27.5647 20.4138L27.4551 20.5811ZM31.3994 24.7773L31.2242 24.8737L31.4117 25.2146L31.5869 25.1182L31.7621 25.0218L31.5746 24.6809L31.3994 24.7773ZM31.5869 25.1182L31.4101 25.2116C32.3025 26.9007 32.7797 28.7781 32.8 30.6896L33 30.6875L33.2 30.6854C33.179 28.71 32.6859 26.77 31.7638 25.0247L31.5869 25.1182ZM33 30.6875H32.8V32.0586H33H33.2V30.6875H33ZM33 32.0586L32.8 32.0585C32.7999 32.4678 32.4678 32.7999 32.0586 32.8L32.0586 33L32.0586 33.2C32.6887 33.1999 33.1999 32.6887 33.2 32.0586L33 32.0586ZM32.0586 33V32.8H27.0039V33V33.2H32.0586V33ZM27.0039 33L27.004 32.8C26.5949 32.7997 26.2626 32.4676 26.2625 32.0585L26.0625 32.0586L25.8625 32.0586C25.8626 32.6886 26.374 33.1996 27.0038 33.2L27.0039 33ZM26.0625 32.0586L26.2625 32.0587C26.2627 31.65 26.5947 31.3184 27.004 31.3182L27.0039 31.1182L27.0038 30.9182C26.3743 30.9186 25.8628 31.4285 25.8625 32.0585L26.0625 32.0586ZM27.0039 31.1182V31.3182H31.1182V31.1182V30.9182H27.0039V31.1182ZM31.1182 31.1182H31.3182V30.709H31.1182H30.9182V31.1182H31.1182ZM31.1182 30.709L31.3181 30.7036L31.3093 30.3745L31.1094 30.3799L30.9094 30.3852L30.9182 30.7143L31.1182 30.709ZM31.1094 30.3799L31.3092 30.3714C31.2383 28.701 30.769 27.0692 29.9384 25.611L29.7646 25.71L29.5909 25.8089C30.39 27.212 30.8413 28.7817 30.9096 30.3884L31.1094 30.3799ZM29.7646 25.71L29.9384 25.611C29.1076 24.1525 27.9401 22.9108 26.5335 21.989L26.4238 22.1562L26.3142 22.3235C27.668 23.2107 28.7915 24.4057 29.5909 25.809L29.7646 25.71ZM26.4238 22.1562L26.5308 21.9873L26.2515 21.8105L26.1445 21.9795L26.0376 22.1485L26.3169 22.3252L26.4238 22.1562ZM26.1445 21.9795L26.2488 21.8088C25.3814 21.2787 24.4446 20.8771 23.4693 20.6126L23.417 20.8057L23.3647 20.9987C24.3036 21.2533 25.2054 21.6399 26.0402 22.1501L26.1445 21.9795ZM23.417 20.8057L23.4656 20.6117L23.0525 20.5081L23.0039 20.7021L22.9553 20.8962L23.3684 20.9997L23.417 20.8057ZM23.0039 20.7021L23.0586 20.5098L22.9658 20.4834L22.9111 20.6758L22.8565 20.8682L22.9492 20.8945L23.0039 20.7021ZM22.9111 20.6758L22.9752 20.4863C22.6198 20.3661 22.4057 19.9933 22.4909 19.6196L22.2959 19.5752L22.1009 19.5308C21.9697 20.1066 22.2995 20.6799 22.847 20.8652L22.9111 20.6758ZM22.2959 19.5752L22.4909 19.6197C22.5762 19.246 22.9303 19.0033 23.3027 19.0491L23.3271 18.8506L23.3516 18.6521C22.7777 18.5815 22.2324 18.9549 22.1009 19.5307L22.2959 19.5752ZM12.8447 20.4502L12.8353 20.2504C11.1479 20.3298 9.50452 20.8061 8.04178 21.6377L8.14062 21.8115L8.23947 21.9854C9.64741 21.185 11.2295 20.7264 12.8541 20.65L12.8447 20.4502ZM8.14062 21.8115L8.03912 21.6392L7.75396 21.8072L7.85547 21.9795L7.95698 22.1518L8.24213 21.9839L8.14062 21.8115ZM7.85547 21.9795L7.75117 21.8088C6.31294 22.6878 5.108 23.8932 4.23276 25.3223L4.40332 25.4268L4.57388 25.5312C5.41603 24.1561 6.57556 22.9961 7.95976 22.1501L7.85547 21.9795ZM4.40332 25.4268L4.2313 25.3247L4.06333 25.6079L4.23535 25.71L4.40737 25.812L4.57534 25.5288L4.40332 25.4268ZM4.23535 25.71L4.06156 25.611C3.17557 27.1665 2.70161 28.9205 2.68282 30.7069L2.88281 30.709L3.0828 30.7111C3.10088 28.9927 3.55679 27.3054 4.40914 25.8089L4.23535 25.71ZM2.88281 30.709H2.68281V31.1182H2.88281H3.08281V30.709H2.88281ZM2.88281 31.1182V31.3182H23.7461V31.1182V30.9182H2.88281V31.1182ZM23.7461 31.1182H23.9461V30.709H23.7461H23.5461V31.1182H23.7461ZM23.7461 30.709L23.946 30.7042L23.9382 30.3751L23.7383 30.3799L23.5383 30.3846L23.5462 30.7137L23.7461 30.709ZM23.7383 30.3799L23.9381 30.3714C23.8719 28.8125 23.4586 27.2866 22.7286 25.9046L22.5518 25.998L22.3749 26.0915C23.0773 27.4211 23.4748 28.889 23.5385 30.3884L23.7383 30.3799ZM22.5518 25.998L22.7271 25.9018L22.5689 25.6137L22.3936 25.71L22.2182 25.8062L22.3765 26.0943L22.5518 25.998ZM22.3936 25.71L22.5673 25.611C21.7365 24.1523 20.568 22.9118 19.1614 21.99L19.0518 22.1572L18.9421 22.3245C20.2961 23.2118 21.4205 24.4057 22.2198 25.8089L22.3936 25.71ZM19.0518 22.1572L19.1594 21.9887L18.8811 21.8109L18.7734 21.9795L18.6658 22.1481L18.9441 22.3258L19.0518 22.1572ZM18.7734 21.9795L18.8777 21.8088C17.4394 20.9299 15.8119 20.4034 14.1309 20.2713L14.1152 20.4707L14.0996 20.6701C15.7179 20.7973 17.2848 21.3041 18.6691 22.1501L18.7734 21.9795ZM14.1152 20.4707L14.1276 20.2711L13.7965 20.2506L13.7842 20.4502L13.7718 20.6498L14.1029 20.6703L14.1152 20.4707ZM13.7842 20.4502L13.7936 20.2504C13.6337 20.2429 13.4736 20.2388 13.3139 20.2385L13.3135 20.4385L13.313 20.6385C13.4665 20.6388 13.6207 20.6427 13.7748 20.65L13.7842 20.4502ZM13.3135 20.4385L13.3085 20.2385L12.8397 20.2503L12.8447 20.4502L12.8497 20.6501L13.3185 20.6384L13.3135 20.4385ZM13.3154 1L13.3154 1.2C17.209 1.20056 20.3752 4.33676 20.3752 8.21582H20.5752H20.7752C20.7752 4.11305 17.4272 0.800595 13.3155 0.8L13.3154 1ZM20.5752 8.21582L20.3752 8.21582C20.3751 12.0948 17.209 15.2311 13.3154 15.2316L13.3154 15.4316L13.3155 15.6316C17.4271 15.631 20.7751 12.3185 20.7752 8.21583L20.5752 8.21582ZM13.3154 15.4316V15.2316C9.42142 15.2316 6.25575 12.0952 6.25566 8.21582L6.05566 8.21582L5.85566 8.21583C5.85576 12.3188 9.20323 15.6316 13.3154 15.6316V15.4316ZM6.05566 8.21582H6.25566C6.25566 4.33637 9.42135 1.2 13.3154 1.2V1V0.8C9.20318 0.8 5.85566 4.11272 5.85566 8.21582H6.05566ZM20.6865 1L20.6865 1.2C24.5803 1.20035 27.7463 4.33661 27.7463 8.21582H27.9463H28.1463C28.1463 4.11293 24.7984 0.800368 20.6865 0.8L20.6865 1ZM27.9463 8.21582L27.7463 8.21582C27.7462 12.095 24.5802 15.2313 20.6865 15.2316L20.6865 15.4316L20.6865 15.6316C24.7984 15.6313 28.1462 12.3186 28.1463 8.21583L27.9463 8.21582ZM20.6865 15.4316V15.2316C20.2773 15.2316 19.9452 14.8995 19.9451 14.4902L19.7451 14.4902L19.5451 14.4903C19.5452 15.1204 20.0563 15.6316 20.6865 15.6316V15.4316ZM19.7451 14.4902L19.9451 14.4902C19.9451 14.0809 20.2772 13.7488 20.6865 13.7488V13.5488V13.3488C20.0563 13.3488 19.5451 13.86 19.5451 14.4902L19.7451 14.4902ZM20.6865 13.5488L20.6865 13.7488C23.7713 13.7485 26.2634 11.2665 26.2635 8.21583L26.0635 8.21582L25.8635 8.21581C25.8634 11.0431 23.5529 13.3485 20.6865 13.3488L20.6865 13.5488ZM26.0635 8.21582H26.2635C26.2635 5.16501 23.7714 2.68318 20.6865 2.68281L20.6865 2.88281L20.6865 3.08281C23.553 3.08316 25.8635 5.38846 25.8635 8.21582H26.0635ZM20.6865 2.88281V2.68281C20.2773 2.68281 19.9452 2.35068 19.9451 1.94136L19.7451 1.94141L19.5451 1.94145C19.5453 2.57152 20.0563 3.08281 20.6865 3.08281V2.88281ZM19.7451 1.94141H19.9451C19.9451 1.53206 20.2772 1.2 20.6865 1.2V1V0.8C20.0563 0.8 19.5451 1.31115 19.5451 1.94141H19.7451ZM13.3154 2.88281V2.68281C10.2303 2.68281 7.7375 5.16477 7.7375 8.21582H7.9375H8.1375C8.1375 5.38826 10.4486 3.08281 13.3154 3.08281V2.88281ZM7.9375 8.21582L7.7375 8.21583C7.7376 11.2668 10.2303 13.7488 13.3154 13.7488V13.5488V13.3488C10.4487 13.3488 8.13759 11.0433 8.1375 8.21581L7.9375 8.21582ZM13.3154 13.5488L13.3155 13.7488C16.4 13.7482 18.8923 11.2664 18.8924 8.21583L18.6924 8.21582L18.4924 8.21581C18.4923 11.043 16.1817 13.3483 13.3154 13.3488L13.3154 13.5488ZM18.6924 8.21582H18.8924C18.8924 5.16513 16.4001 2.68341 13.3155 2.68281L13.3154 2.88281L13.3154 3.08281C16.1817 3.08337 18.4924 5.38861 18.4924 8.21582H18.6924Z" fill="black"/>
</svg>
