<svg width="34" height="34" viewBox="0 0 34 34" fill="none" xmlns="http://www.w3.org/2000/svg">
<path d="M17.0654 1.06738C17.6083 1.0674 18.1449 1.09366 18.6738 1.14648C18.6774 1.14691 18.681 1.14696 18.6846 1.14746C24.8323 1.76553 29.9517 5.86525 32.0459 11.4443C32.0521 11.4587 32.0577 11.4732 32.0625 11.4883C32.7085 13.2249 33.0635 15.1039 33.0635 17.0654C33.0634 19.0265 32.7082 20.9044 32.0625 22.6406C32.0578 22.6553 32.0528 22.6696 32.0469 22.6836C29.7719 28.7469 23.9233 33.0633 17.0654 33.0635C10.2092 33.0635 4.36132 28.7494 2.08496 22.6885C2.08216 22.682 2.07968 22.6755 2.07715 22.6689C1.42477 20.9249 1.06744 19.037 1.06738 17.0654C1.06739 15.0933 1.4245 13.2043 2.07715 11.46C2.0797 11.4534 2.08215 11.4468 2.08496 11.4404C4.17991 5.86357 9.29841 1.76575 15.4443 1.14746C15.4476 1.147 15.4509 1.14688 15.4541 1.14648C15.9838 1.09352 16.5217 1.06738 17.0654 1.06738ZM12.0146 22.9893C12.4493 24.9621 13.0491 26.6723 13.6504 28.0654C14.2211 29.3877 14.7912 30.4236 15.2168 31.126C15.4294 31.4768 15.6064 31.7445 15.7285 31.9229C15.7499 31.954 15.7702 31.9821 15.7881 32.0078C16.209 32.0433 16.6353 32.0635 17.0654 32.0635C17.4954 32.0635 17.921 32.0433 18.3418 32.0078C18.3597 31.9819 18.3809 31.9542 18.4023 31.9229C18.5246 31.7445 18.7013 31.477 18.9141 31.126C19.3397 30.4236 19.9097 29.3878 20.4805 28.0654C21.0817 26.6723 21.6806 24.9621 22.1152 22.9893H12.0146ZM3.2832 22.9893C5.25323 27.566 9.43575 30.9652 14.4844 31.8408C14.4452 31.7778 14.4032 31.7126 14.3613 31.6436C13.9153 30.9075 13.3227 29.8308 12.7314 28.4609C12.0873 26.9683 11.4443 25.1238 10.9912 22.9893H3.2832ZM23.1387 22.9893C22.6856 25.1238 22.0436 26.9683 21.3994 28.4609C20.8081 29.831 20.2155 30.9075 19.7695 31.6436C19.7276 31.7128 19.6848 31.7776 19.6455 31.8408C24.6942 30.9652 28.8767 27.566 30.8467 22.9893H23.1387ZM2.89453 12.1406C2.35857 13.6831 2.06739 15.3404 2.06738 17.0654C2.06744 18.7903 2.35862 20.4469 2.89453 21.9893H10.7959C10.5297 20.4727 10.3662 18.825 10.3662 17.0654C10.3662 15.3056 10.5297 13.6574 10.7959 12.1406H2.89453ZM11.8135 12.1406C11.5382 13.652 11.3662 15.3006 11.3662 17.0654C11.3662 18.8299 11.5373 20.4781 11.8125 21.9893H22.3174C22.5926 20.4781 22.7646 18.83 22.7646 17.0654C22.7646 15.3005 22.5917 13.652 22.3164 12.1406H11.8135ZM23.334 12.1406C23.6002 13.6574 23.7646 15.3056 23.7646 17.0654C23.7646 18.825 23.6002 20.4727 23.334 21.9893H31.2354C31.7713 20.4469 32.0634 18.7903 32.0635 17.0654C32.0635 15.3404 31.7713 13.6831 31.2354 12.1406H23.334ZM14.4844 2.28809C9.43569 3.16364 5.25326 6.56383 3.2832 11.1406H10.9912C11.4443 9.0058 12.0872 7.16158 12.7314 5.66895C13.3229 4.29864 13.9153 3.22243 14.3613 2.48633C14.4033 2.41702 14.4451 2.35133 14.4844 2.28809ZM17.0654 2.06738C16.6353 2.06738 16.209 2.0856 15.7881 2.12109C15.77 2.14697 15.7501 2.17557 15.7285 2.20703C15.6063 2.38546 15.4296 2.65372 15.2168 3.00488C14.7911 3.70735 14.2212 4.74289 13.6504 6.06543C13.0492 7.45846 12.4492 9.16797 12.0146 11.1406H22.1152C21.6807 9.16813 21.0817 7.4584 20.4805 6.06543C19.9097 4.74311 19.3397 3.70735 18.9141 3.00488C18.7014 2.65395 18.5246 2.38546 18.4023 2.20703C18.3808 2.17553 18.3599 2.147 18.3418 2.12109C17.921 2.08562 17.4954 2.0674 17.0654 2.06738ZM19.7695 2.48633C20.2156 3.22242 20.8081 4.29887 21.3994 5.66895C22.0436 7.16152 22.6856 9.00595 23.1387 11.1406H30.8467C28.8766 6.56381 24.6942 3.16362 19.6455 2.28809C19.6848 2.35136 19.7275 2.41699 19.7695 2.48633Z" fill="black"/>
<path d="M17.0654 1.06738L17.0654 0.567383L17.0654 0.567383L17.0654 1.06738ZM18.6738 1.14648L18.7328 0.649883L18.7235 0.648959L18.6738 1.14648ZM18.6846 1.14746L18.6151 1.6426C18.6215 1.64352 18.628 1.6443 18.6346 1.64495L18.6846 1.14746ZM32.0459 11.4443L31.5778 11.62C31.5805 11.6272 31.5833 11.6344 31.5864 11.6414L32.0459 11.4443ZM32.0625 11.4883L31.5864 11.641C31.5887 11.6482 31.5912 11.6554 31.5939 11.6626L32.0625 11.4883ZM33.0635 17.0654L33.5635 17.0654L33.5635 17.0654L33.0635 17.0654ZM32.0625 22.6406L31.5939 22.4663C31.5911 22.4738 31.5885 22.4814 31.5861 22.489L32.0625 22.6406ZM32.0469 22.6836L31.5864 22.4886C31.5837 22.495 31.5812 22.5015 31.5787 22.5079L32.0469 22.6836ZM17.0654 33.0635L17.0654 33.5635L17.0654 33.5635L17.0654 33.0635ZM2.08496 22.6885L2.55304 22.5127C2.55001 22.5046 2.54678 22.4967 2.54335 22.4888L2.08496 22.6885ZM2.07715 22.6689L1.60882 22.8441L1.6107 22.849L2.07715 22.6689ZM1.06738 17.0654L0.567383 17.0654L0.567383 17.0654L1.06738 17.0654ZM2.07715 11.46L1.61104 11.2789L1.60885 11.2848L2.07715 11.46ZM2.08496 11.4404L2.54294 11.6411C2.54652 11.6329 2.54989 11.6246 2.55303 11.6163L2.08496 11.4404ZM15.4443 1.14746L15.4944 1.64495C15.5013 1.64426 15.5081 1.64342 15.515 1.64244L15.4443 1.14746ZM15.4541 1.14648L15.4043 0.648837L15.3931 0.650223L15.4541 1.14648ZM12.0146 22.9893V22.4893C11.8631 22.4893 11.7198 22.5579 11.6249 22.676C11.53 22.7941 11.4938 22.9489 11.5264 23.0968L12.0146 22.9893ZM13.6504 28.0654L13.1913 28.2636L13.1913 28.2636L13.6504 28.0654ZM15.2168 31.126L14.7892 31.3851L14.7892 31.3851L15.2168 31.126ZM15.7285 31.9229L15.316 32.2054L15.316 32.2054L15.7285 31.9229ZM15.7881 32.0078L15.3771 32.2926C15.4621 32.4153 15.5974 32.4935 15.7461 32.506L15.7881 32.0078ZM17.0654 32.0635L17.0654 32.5635L17.0654 32.5635L17.0654 32.0635ZM18.3418 32.0078L18.3838 32.506C18.5325 32.4935 18.6677 32.4153 18.7527 32.2926L18.3418 32.0078ZM18.4023 31.9229L18.8148 32.2054L18.8148 32.2054L18.4023 31.9229ZM18.9141 31.126L19.3417 31.3851L19.3417 31.3851L18.9141 31.126ZM20.4805 28.0654L20.9395 28.2636L20.9395 28.2636L20.4805 28.0654ZM22.1152 22.9893L22.6035 23.0968C22.6361 22.9489 22.5999 22.7941 22.505 22.676C22.4101 22.5579 22.2667 22.4893 22.1152 22.4893V22.9893ZM3.2832 22.9893V22.4893C3.11499 22.4893 2.95805 22.5738 2.86557 22.7143C2.77308 22.8548 2.75744 23.0324 2.82394 23.1869L3.2832 22.9893ZM14.4844 31.8408L14.3989 32.3335C14.593 32.3671 14.7888 32.2837 14.8989 32.1204C15.009 31.9571 15.013 31.7443 14.9091 31.577L14.4844 31.8408ZM14.3613 31.6436L13.9337 31.9027L13.9337 31.9027L14.3613 31.6436ZM12.7314 28.4609L12.2724 28.6591L12.2724 28.6591L12.7314 28.4609ZM10.9912 22.9893L11.4803 22.8854C11.4313 22.6545 11.2273 22.4893 10.9912 22.4893V22.9893ZM23.1387 22.9893V22.4893C22.9025 22.4893 22.6986 22.6545 22.6496 22.8854L23.1387 22.9893ZM21.3994 28.4609L21.8585 28.6591L21.8585 28.6591L21.3994 28.4609ZM19.7695 31.6436L20.1971 31.9027L20.1972 31.9027L19.7695 31.6436ZM19.6455 31.8408L19.2208 31.577C19.1168 31.7443 19.1208 31.9571 19.231 32.1204C19.3411 32.2837 19.5369 32.3671 19.7309 32.3335L19.6455 31.8408ZM30.8467 22.9893L31.3059 23.1869C31.3724 23.0324 31.3568 22.8548 31.2643 22.7143C31.1718 22.5738 31.0149 22.4893 30.8467 22.4893V22.9893ZM2.89453 12.1406V11.6406C2.68164 11.6406 2.4921 11.7754 2.42223 11.9765L2.89453 12.1406ZM2.06738 17.0654L1.56738 17.0654L1.56738 17.0654L2.06738 17.0654ZM2.89453 21.9893L2.42223 22.1534C2.4921 22.3545 2.68164 22.4893 2.89453 22.4893V21.9893ZM10.7959 21.9893V22.4893C10.9436 22.4893 11.0838 22.4239 11.1788 22.3108C11.2738 22.1977 11.3139 22.0483 11.2884 21.9028L10.7959 21.9893ZM10.3662 17.0654L9.86621 17.0654L9.86621 17.0654L10.3662 17.0654ZM10.7959 12.1406L11.2884 12.2271C11.3139 12.0816 11.2738 11.9322 11.1788 11.8191C11.0838 11.706 10.9436 11.6406 10.7959 11.6406V12.1406ZM11.8135 12.1406V11.6406C11.5719 11.6406 11.3649 11.8134 11.3216 12.051L11.8135 12.1406ZM11.3662 17.0654L10.8662 17.0654L10.8662 17.0654L11.3662 17.0654ZM11.8125 21.9893L11.3206 22.0789C11.3639 22.3165 11.5709 22.4893 11.8125 22.4893V21.9893ZM22.3174 21.9893V22.4893C22.559 22.4893 22.766 22.3165 22.8093 22.0789L22.3174 21.9893ZM22.7646 17.0654L23.2646 17.0654V17.0654H22.7646ZM22.3164 12.1406L22.8083 12.051C22.765 11.8134 22.558 11.6406 22.3164 11.6406V12.1406ZM23.334 12.1406V11.6406C23.1863 11.6406 23.0461 11.706 22.9511 11.8191C22.8561 11.9322 22.816 12.0816 22.8415 12.2271L23.334 12.1406ZM23.7646 17.0654L24.2646 17.0654V17.0654H23.7646ZM23.334 21.9893L22.8415 21.9028C22.816 22.0483 22.8561 22.1977 22.9511 22.3108C23.0461 22.4239 23.1863 22.4893 23.334 22.4893V21.9893ZM31.2354 21.9893V22.4893C31.4482 22.4893 31.6378 22.3545 31.7077 22.1534L31.2354 21.9893ZM32.0635 17.0654L32.5635 17.0654L32.5635 17.0654L32.0635 17.0654ZM31.2354 12.1406L31.7077 11.9765C31.6378 11.7754 31.4482 11.6406 31.2354 11.6406V12.1406ZM14.4844 2.28809L14.909 2.55207C15.013 2.38475 15.0091 2.17195 14.899 2.0086C14.7888 1.84524 14.5931 1.76178 14.3989 1.79544L14.4844 2.28809ZM3.2832 11.1406L2.82394 10.9429C2.75744 11.0974 2.77308 11.275 2.86557 11.4155C2.95805 11.556 3.11499 11.6406 3.2832 11.6406V11.1406ZM10.9912 11.1406V11.6406C11.2273 11.6406 11.4313 11.4754 11.4803 11.2444L10.9912 11.1406ZM12.7314 5.66895L12.2724 5.47081L12.2724 5.47081L12.7314 5.66895ZM14.3613 2.48633L13.9337 2.2272L13.9337 2.22721L14.3613 2.48633ZM17.0654 2.06738L17.0654 1.56738L17.0654 1.56738L17.0654 2.06738ZM15.7881 2.12109L15.7461 1.62286C15.5979 1.63535 15.463 1.71312 15.378 1.83506L15.7881 2.12109ZM15.7285 2.20703L15.316 1.92444L15.316 1.92445L15.7285 2.20703ZM15.2168 3.00488L14.7892 2.74576L14.7892 2.74576L15.2168 3.00488ZM13.6504 6.06543L13.1913 5.86729L13.1913 5.86729L13.6504 6.06543ZM12.0146 11.1406L11.5264 11.0331C11.4938 11.181 11.53 11.3358 11.6249 11.4538C11.7198 11.5719 11.8631 11.6406 12.0146 11.6406V11.1406ZM22.1152 11.1406V11.6406C22.2667 11.6406 22.4101 11.5719 22.505 11.4538C22.5999 11.3358 22.6361 11.181 22.6035 11.033L22.1152 11.1406ZM20.4805 6.06543L20.9395 5.8673L20.9395 5.86729L20.4805 6.06543ZM18.9141 3.00488L19.3417 2.74577L19.3417 2.74576L18.9141 3.00488ZM18.4023 2.20703L18.8148 1.92447L18.8148 1.92444L18.4023 2.20703ZM18.3418 2.12109L18.7519 1.83506C18.6668 1.71312 18.5319 1.63535 18.3838 1.62286L18.3418 2.12109ZM19.7695 2.48633L20.1972 2.22721L20.1971 2.2272L19.7695 2.48633ZM21.3994 5.66895L21.8585 5.47081L21.8585 5.47081L21.3994 5.66895ZM23.1387 11.1406L22.6496 11.2444C22.6986 11.4754 22.9025 11.6406 23.1387 11.6406V11.1406ZM30.8467 11.1406V11.6406C31.0149 11.6406 31.1718 11.556 31.2643 11.4155C31.3568 11.275 31.3724 11.0974 31.3059 10.9429L30.8467 11.1406ZM19.6455 2.28809L19.7309 1.79544C19.5368 1.76178 19.341 1.84524 19.2309 2.0086C19.1208 2.17196 19.1169 2.38475 19.2209 2.55207L19.6455 2.28809ZM17.0654 1.06738L17.0654 1.56738C17.5922 1.5674 18.1122 1.59288 18.6241 1.64401L18.6738 1.14648L18.7235 0.648959C18.1776 0.594444 17.6244 0.567399 17.0654 0.567383L17.0654 1.06738ZM18.6738 1.14648L18.6149 1.643C18.6242 1.6441 18.6317 1.64476 18.6363 1.64512C18.6386 1.64531 18.6405 1.64545 18.6416 1.64553C18.6422 1.64557 18.6427 1.64561 18.643 1.64563C18.6433 1.64566 18.6433 1.64566 18.6434 1.64566C18.6439 1.64569 18.6406 1.64547 18.6363 1.64508C18.6318 1.64466 18.6243 1.64391 18.6151 1.6426L18.6846 1.14746L18.7541 0.652317C18.743 0.650766 18.7338 0.649817 18.7274 0.649236C18.7214 0.64868 18.7163 0.648323 18.715 0.648227C18.7146 0.6482 18.7142 0.648168 18.7141 0.648163C18.7139 0.64815 18.714 0.648154 18.7141 0.648163C18.7143 0.648179 18.7153 0.648253 18.7168 0.648368C18.7195 0.648588 18.7253 0.649082 18.7328 0.649969L18.6738 1.14648ZM18.6846 1.14746L18.6346 1.64495C24.5885 2.24355 29.5488 6.21468 31.5778 11.62L32.0459 11.4443L32.514 11.2686C30.3546 5.51582 25.0761 1.28752 18.7346 0.649969L18.6846 1.14746ZM32.0459 11.4443L31.5864 11.6414L31.5864 11.641L32.0625 11.4883L32.5386 11.3356C32.5279 11.3023 32.5163 11.2727 32.5054 11.2473L32.0459 11.4443ZM32.0625 11.4883L31.5939 11.6626C32.2195 13.3446 32.5635 15.1646 32.5635 17.0654L33.0635 17.0654L33.5635 17.0654C33.5635 15.0431 33.1974 13.1051 32.5311 11.314L32.0625 11.4883ZM33.0635 17.0654L32.5635 17.0654C32.5634 18.9657 32.2193 20.7847 31.5939 22.4663L32.0625 22.6406L32.5311 22.8149C33.1971 21.0242 33.5634 19.0873 33.5635 17.0654L33.0635 17.0654ZM32.0625 22.6406L31.5861 22.489L31.5864 22.4886L32.0469 22.6836L32.5073 22.8785C32.5212 22.8457 32.5314 22.8159 32.5389 22.7923L32.0625 22.6406ZM32.0469 22.6836L31.5787 22.5079C29.3745 28.3827 23.7081 32.5633 17.0654 32.5635L17.0654 33.0635L17.0654 33.5635C24.1386 33.5633 30.1693 29.1112 32.515 22.8592L32.0469 22.6836ZM17.0654 33.0635L17.0654 32.5635C10.4243 32.5635 4.75858 28.385 2.55304 22.5127L2.08496 22.6885L1.61689 22.8643C3.96406 29.1137 9.99402 33.5635 17.0654 33.5635L17.0654 33.0635ZM2.08496 22.6885L2.54335 22.4888L2.5436 22.4889L2.07715 22.6689L1.6107 22.849C1.61143 22.8509 1.61848 22.8696 1.62657 22.8882L2.08496 22.6885ZM2.07715 22.6689L2.54546 22.4938C1.91367 20.8048 1.56744 18.9762 1.56738 17.0654L1.06738 17.0654L0.567383 17.0654C0.567442 19.0979 0.935864 21.0451 1.60884 22.8441L2.07715 22.6689ZM1.06738 17.0654L1.56738 17.0654C1.56739 15.1541 1.91343 13.3244 2.54545 11.6352L2.07715 11.46L1.60885 11.2848C0.935575 13.0843 0.567389 15.0325 0.567383 17.0654L1.06738 17.0654ZM2.07715 11.46L2.54322 11.641L2.54294 11.6411L2.08496 11.4404L1.62698 11.2398C1.62204 11.2511 1.61815 11.2608 1.61569 11.267C1.61444 11.2702 1.61334 11.2731 1.61262 11.2749C1.61172 11.2772 1.61147 11.2779 1.61107 11.2789L2.07715 11.46ZM2.08496 11.4404L2.55303 11.6163C4.58274 6.21307 9.54214 2.24376 15.4944 1.64495L15.4443 1.14746L15.3943 0.649972C9.05467 1.28775 3.77709 5.51407 1.6169 11.2646L2.08496 11.4404ZM15.4443 1.14746L15.515 1.64244C15.5071 1.64357 15.5008 1.64426 15.4969 1.64465C15.4933 1.64502 15.4905 1.64524 15.4909 1.64521C15.491 1.6452 15.491 1.6452 15.4913 1.64517C15.4915 1.64516 15.492 1.64512 15.4924 1.64508C15.4934 1.645 15.495 1.64486 15.497 1.64468C15.5008 1.64433 15.5073 1.64371 15.5151 1.64275L15.4541 1.14648L15.3931 0.650223C15.3993 0.649456 15.4041 0.649 15.4063 0.648799C15.4075 0.648695 15.4083 0.648626 15.4084 0.648615C15.4085 0.648608 15.4085 0.648607 15.4083 0.648622C15.4082 0.64863 15.4079 0.648662 15.4075 0.648691C15.4063 0.648797 15.4019 0.649159 15.3966 0.649691C15.3911 0.650245 15.3832 0.651124 15.3737 0.652479L15.4443 1.14746ZM15.4541 1.14648L15.5038 1.644C16.0165 1.59275 16.5377 1.56738 17.0654 1.56738L17.0654 1.06738L17.0654 0.567383C16.5057 0.567385 15.9512 0.594287 15.4044 0.648965L15.4541 1.14648ZM12.0146 22.9893L11.5264 23.0968C11.9686 25.1046 12.5791 26.8451 13.1913 28.2636L13.6504 28.0654L14.1095 27.8673C13.5191 26.4995 12.9299 24.8196 12.5029 22.8817L12.0146 22.9893ZM13.6504 28.0654L13.1913 28.2636C13.7723 29.6096 14.3534 30.6659 14.7892 31.3851L15.2168 31.126L15.6444 30.8669C15.229 30.1814 14.67 29.1658 14.1095 27.8673L13.6504 28.0654ZM15.2168 31.126L14.7892 31.3851C15.0071 31.7447 15.1892 32.0202 15.316 32.2054L15.7285 31.9229L16.141 31.6403C16.0235 31.4688 15.8517 31.2089 15.6444 30.8668L15.2168 31.126ZM15.7285 31.9229L15.316 32.2054C15.3321 32.2289 15.374 32.2881 15.3771 32.2926L15.7881 32.0078L16.199 31.723C16.1665 31.676 16.1677 31.6792 16.141 31.6403L15.7285 31.9229ZM15.7881 32.0078L15.7461 32.506C16.1793 32.5426 16.6197 32.5635 17.0654 32.5635L17.0654 32.0635L17.0654 31.5635C16.6509 31.5635 16.2387 31.544 15.8301 31.5096L15.7881 32.0078ZM17.0654 32.0635L17.0654 32.5635C17.511 32.5635 17.9507 32.5426 18.3838 32.506L18.3418 32.0078L18.2998 31.5096C17.8913 31.544 17.4798 31.5635 17.0654 31.5635L17.0654 32.0635ZM18.3418 32.0078L18.7527 32.2926C18.7579 32.2851 18.7639 32.2769 18.7756 32.2608C18.786 32.2465 18.8 32.227 18.8148 32.2054L18.4023 31.9229L17.9898 31.6403C17.9832 31.65 17.9759 31.6601 17.9659 31.674C17.9572 31.686 17.9436 31.7046 17.9309 31.723L18.3418 32.0078ZM18.4023 31.9229L18.8148 32.2054C18.9417 32.0202 19.1236 31.7449 19.3417 31.3851L18.9141 31.126L18.4864 30.8669C18.2791 31.2091 18.1074 31.4687 17.9898 31.6403L18.4023 31.9229ZM18.9141 31.126L19.3417 31.3851C19.7775 30.6658 20.3585 29.6097 20.9395 28.2636L20.4805 28.0654L20.0214 27.8673C19.4609 29.1659 18.9019 30.1813 18.4864 30.8669L18.9141 31.126ZM20.4805 28.0654L20.9395 28.2636C21.5518 26.845 22.1613 25.1044 22.6035 23.0968L22.1152 22.9893L21.6269 22.8817C21.2 24.8198 20.6117 26.4997 20.0214 27.8673L20.4805 28.0654ZM22.1152 22.9893V22.4893H12.0146V22.9893V23.4893H22.1152V22.9893ZM3.2832 22.9893L2.82394 23.1869C4.8594 27.9157 9.18054 31.4284 14.3989 32.3335L14.4844 31.8408L14.5698 31.3482C9.69095 30.502 5.64705 27.2163 3.74246 22.7916L3.2832 22.9893ZM14.4844 31.8408L14.9091 31.577C14.8629 31.5026 14.8299 31.4521 14.7889 31.3844L14.3613 31.6436L13.9337 31.9027C13.9764 31.9731 14.0275 32.0529 14.0596 32.1046L14.4844 31.8408ZM14.3613 31.6436L14.789 31.3844C14.3531 30.6651 13.7715 29.6088 13.1905 28.2628L12.7314 28.4609L12.2724 28.6591C12.874 30.0529 13.4776 31.1499 13.9337 31.9027L14.3613 31.6436ZM12.7314 28.4609L13.1905 28.2628C12.5576 26.7964 11.9256 24.9835 11.4803 22.8854L10.9912 22.9893L10.5021 23.0931C10.9629 25.2642 11.6169 27.1403 12.2724 28.6591L12.7314 28.4609ZM10.9912 22.9893V22.4893H3.2832V22.9893V23.4893H10.9912V22.9893ZM23.1387 22.9893L22.6496 22.8854C22.2042 24.9836 21.5732 26.7965 20.9403 28.2628L21.3994 28.4609L21.8585 28.6591C22.514 27.1402 23.167 25.264 23.6278 23.0931L23.1387 22.9893ZM21.3994 28.4609L20.9403 28.2628C20.3593 29.6089 19.7778 30.6651 19.3419 31.3844L19.7695 31.6436L20.1972 31.9027C20.6533 31.1499 21.2569 30.053 21.8585 28.6591L21.3994 28.4609ZM19.7695 31.6436L19.3419 31.3844C19.298 31.4569 19.2737 31.4918 19.2208 31.577L19.6455 31.8408L20.0703 32.1046C20.0958 32.0634 20.1572 31.9686 20.1971 31.9027L19.7695 31.6436ZM19.6455 31.8408L19.7309 32.3335C24.9494 31.4284 29.2705 27.9157 31.3059 23.1869L30.8467 22.9893L30.3874 22.7916C28.4828 27.2163 24.4389 30.502 19.5601 31.3482L19.6455 31.8408ZM30.8467 22.9893V22.4893H23.1387V22.9893V23.4893H30.8467V22.9893ZM2.89453 12.1406L2.42223 11.9765C1.86817 13.5711 1.56739 15.2838 1.56738 17.0654L2.06738 17.0654L2.56738 17.0654C2.56739 15.397 2.84896 13.7951 3.36683 12.3047L2.89453 12.1406ZM2.06738 17.0654L1.56738 17.0654C1.56744 18.8469 1.86824 20.559 2.42223 22.1534L2.89453 21.9893L3.36683 21.8251C2.84901 20.3349 2.56743 18.7336 2.56738 17.0654L2.06738 17.0654ZM2.89453 21.9893V22.4893H10.7959V21.9893V21.4893H2.89453V21.9893ZM10.7959 21.9893L11.2884 21.9028C11.0268 20.4127 10.8662 18.794 10.8662 17.0654L10.3662 17.0654L9.86621 17.0654C9.86625 18.8561 10.0326 20.5327 10.3034 22.0757L10.7959 21.9893ZM10.3662 17.0654H10.8662C10.8662 15.3366 11.0268 13.7174 11.2884 12.2271L10.7959 12.1406L10.3034 12.0542C10.0326 13.5974 9.86621 15.2746 9.86621 17.0654H10.3662ZM10.7959 12.1406V11.6406H2.89453V12.1406V12.6406H10.7959V12.1406ZM11.8135 12.1406L11.3216 12.051C11.0414 13.5894 10.8662 15.268 10.8662 17.0654H11.3662H11.8662C11.8662 15.3331 12.035 13.7146 12.3054 12.2302L11.8135 12.1406ZM11.3662 17.0654L10.8662 17.0654C10.8662 18.8623 11.0404 20.5405 11.3206 22.0789L11.8125 21.9893L12.3044 21.8997C12.0341 20.4157 11.8662 18.7976 11.8662 17.0654L11.3662 17.0654ZM11.8125 21.9893V22.4893H22.3174V21.9893V21.4893H11.8125V21.9893ZM22.3174 21.9893L22.8093 22.0789C23.0894 20.5407 23.2646 18.8625 23.2646 17.0654L22.7646 17.0654L22.2646 17.0654C22.2646 18.7974 22.0958 20.4155 21.8255 21.8997L22.3174 21.9893ZM22.7646 17.0654H23.2646C23.2646 15.2678 23.0885 13.5892 22.8083 12.051L22.3164 12.1406L21.8245 12.2302C22.0949 13.7148 22.2646 15.3333 22.2646 17.0654H22.7646ZM22.3164 12.1406V11.6406H11.8135V12.1406V12.6406H22.3164V12.1406ZM23.334 12.1406L22.8415 12.2271C23.1031 13.7176 23.2646 15.3368 23.2646 17.0654H23.7646H24.2646C24.2646 15.2744 24.0973 13.5973 23.8265 12.0542L23.334 12.1406ZM23.7646 17.0654L23.2646 17.0654C23.2646 18.7938 23.1031 20.4125 22.8415 21.9028L23.334 21.9893L23.8265 22.0757C24.0973 20.5329 24.2646 18.8563 24.2646 17.0654L23.7646 17.0654ZM23.334 21.9893V22.4893H31.2354V21.9893V21.4893H23.334V21.9893ZM31.2354 21.9893L31.7077 22.1534C32.2616 20.5592 32.5634 18.8471 32.5635 17.0654L32.0635 17.0654L31.5635 17.0654C31.5634 18.7334 31.2809 20.3347 30.763 21.8252L31.2354 21.9893ZM32.0635 17.0654L32.5635 17.0654C32.5635 15.2836 32.2616 13.5709 31.7077 11.9765L31.2354 12.1406L30.7631 12.3047C31.281 13.7953 31.5635 15.3972 31.5635 17.0654L32.0635 17.0654ZM31.2354 12.1406V11.6406H23.334V12.1406V12.6406H31.2354V12.1406ZM14.4844 2.28809L14.3989 1.79544C9.18042 2.70045 4.85941 6.21418 2.82394 10.9429L3.2832 11.1406L3.74246 11.3383C5.64711 6.91347 9.69096 3.62683 14.5698 2.78073L14.4844 2.28809ZM3.2832 11.1406V11.6406H10.9912V11.1406V10.6406H3.2832V11.1406ZM10.9912 11.1406L11.4803 11.2444C11.9256 9.14616 12.5576 7.33356 13.1905 5.86708L12.7314 5.66895L12.2724 5.47081C11.6169 6.98961 10.9629 8.86544 10.5021 11.0368L10.9912 11.1406ZM12.7314 5.66895L13.1905 5.86708C13.7716 4.52065 14.353 3.46481 14.7889 2.74545L14.3613 2.48633L13.9337 2.22721C13.4775 2.98004 12.8741 4.07663 12.2724 5.47081L12.7314 5.66895ZM14.3613 2.48633L14.7889 2.74545C14.8291 2.67921 14.8662 2.62089 14.909 2.55207L14.4844 2.28809L14.0597 2.0241C14.0239 2.08178 13.9776 2.15483 13.9337 2.2272L14.3613 2.48633ZM17.0654 2.06738L17.0654 1.56738C16.6212 1.56738 16.1809 1.5862 15.7461 1.62286L15.7881 2.12109L15.8301 2.61933C16.2371 2.58501 16.6494 2.56738 17.0654 2.56738L17.0654 2.06738ZM15.7881 2.12109L15.378 1.83506C15.3602 1.86061 15.339 1.89095 15.316 1.92444L15.7285 2.20703L16.141 2.48962C16.1612 2.46019 16.1799 2.43334 16.1982 2.40713L15.7881 2.12109ZM15.7285 2.20703L15.316 1.92445C15.1888 2.1102 15.007 2.38627 14.7892 2.74576L15.2168 3.00488L15.6444 3.26401C15.8522 2.92117 16.0238 2.66073 16.141 2.48961L15.7285 2.20703ZM15.2168 3.00488L14.7892 2.74576C14.3533 3.46509 13.7724 4.52099 13.1913 5.86729L13.6504 6.06543L14.1095 6.26357C14.67 4.96479 15.229 3.94962 15.6444 3.264L15.2168 3.00488ZM13.6504 6.06543L13.1913 5.86729C12.5792 7.2856 11.9686 9.02545 11.5264 11.0331L12.0146 11.1406L12.5029 11.2482C12.9298 9.3105 13.5191 7.63131 14.1095 6.26357L13.6504 6.06543ZM12.0146 11.1406V11.6406H22.1152V11.1406V10.6406H12.0146V11.1406ZM22.1152 11.1406L22.6035 11.033C22.1613 9.02576 21.5517 7.28571 20.9395 5.8673L20.4805 6.06543L20.0214 6.26356C20.6116 7.63108 21.2 9.31049 21.6269 11.2482L22.1152 11.1406ZM20.4805 6.06543L20.9395 5.86729C20.3585 4.52121 19.7775 3.46509 19.3417 2.74577L18.9141 3.00488L18.4864 3.26399C18.9019 3.94961 19.4609 4.96501 20.0214 6.26357L20.4805 6.06543ZM18.9141 3.00488L19.3417 2.74576C19.124 2.3865 18.9421 2.1102 18.8148 1.92447L18.4023 2.20703L17.9898 2.48959C18.1071 2.66073 18.2788 2.9214 18.4864 3.26401L18.9141 3.00488ZM18.4023 2.20703L18.8148 1.92444C18.7956 1.8964 18.7572 1.84269 18.7519 1.83506L18.3418 2.12109L17.9317 2.40713C17.9625 2.45131 17.9659 2.45466 17.9899 2.48962L18.4023 2.20703ZM18.3418 2.12109L18.3838 1.62286C17.9492 1.58622 17.5095 1.5674 17.0654 1.56738L17.0654 2.06738L17.0654 2.56738C17.4812 2.5674 17.8929 2.58502 18.2998 2.61933L18.3418 2.12109ZM19.7695 2.48633L19.3419 2.74544C19.7778 3.4648 20.3593 4.52088 20.9403 5.86708L21.3994 5.66895L21.8585 5.47081C21.2568 4.07685 20.6533 2.98003 20.1972 2.22721L19.7695 2.48633ZM21.3994 5.66895L20.9403 5.86708C21.5732 7.33334 22.2043 9.14616 22.6496 11.2444L23.1387 11.1406L23.6278 11.0368C23.167 8.86574 22.514 6.98971 21.8585 5.47081L21.3994 5.66895ZM23.1387 11.1406V11.6406H30.8467V11.1406V10.6406H23.1387V11.1406ZM30.8467 11.1406L31.3059 10.9429C29.2705 6.21417 24.9495 2.70043 19.7309 1.79544L19.6455 2.28809L19.5601 2.78073C24.4389 3.62682 28.4828 6.91345 30.3874 11.3383L30.8467 11.1406ZM19.6455 2.28809L19.2209 2.55207C19.2689 2.62932 19.3003 2.67676 19.3419 2.74545L19.7695 2.48633L20.1971 2.2272C20.1547 2.15721 20.1008 2.0734 20.0701 2.0241L19.6455 2.28809Z" fill="black"/>
</svg>
