<svg width="45" height="43" viewBox="0 0 45 43" fill="none" xmlns="http://www.w3.org/2000/svg">
<g clip-path="url(#clip0_6_22)">
<path d="M6.34064 38.9316L6.33869 37.3886C6.33706 36.2049 6.33649 35.0209 6.33576 33.8369L6.33381 32.082L6.33088 26.0781V25.5126L6.3299 24.5654V24.375L6.32502 18.2763C6.32206 16.1288 6.32042 13.9814 6.32013 11.8339V11.1269L6.31916 10.9511L6.31623 8.14448L6.31525 5.32905L6.3133 3.7978V2.40522L6.31232 1.89155C6.31106 1.66857 6.31194 1.44429 6.3133 1.21675V1.19722C6.31253 1.13971 6.31115 1.08221 6.31037 1.02339C6.31052 1.0115 6.31111 1.00042 6.31134 0.990186L6.40314 0.989209H6.40509L6.74787 0.987256H7.12677L7.52912 0.986279L8.63459 0.985303L9.82795 0.98335L12.7098 0.98042L14.0653 0.978467L18.5711 0.975537H20.035L24.7488 0.969678L29.5828 0.964795L32.3016 0.961865L34.6102 0.959912L35.7967 0.958936H36.8709L37.2713 0.957959H37.8377C37.856 0.957944 37.8725 0.958777 37.8875 0.958936C37.8872 0.97142 37.8879 0.98471 37.8875 0.998975L37.8846 1.17769V1.39741C37.8852 1.63602 37.8856 1.87483 37.8856 2.11519V2.11714L37.8865 2.63667L37.8875 4.06831L37.8895 5.61128C37.8911 6.79495 37.8926 7.97903 37.8934 9.16304L37.8944 10.9179L37.8973 16.9218L37.8983 17.2988V18.625L37.9041 24.7236C37.9071 26.871 37.9087 29.0186 37.909 31.166V32.0488L37.9119 34.8554L37.9139 37.6708L37.9149 39.2021V40.5947L37.9168 41.1083C37.9181 41.3313 37.9172 41.5556 37.9158 41.7832V41.8027C37.9166 41.8602 37.918 41.9177 37.9188 41.9765C37.9186 41.9884 37.917 41.9995 37.9168 42.0097L37.826 42.0117H37.824C37.7108 42.012 37.5969 42.0123 37.4803 42.0126H37.1014L36.699 42.0136L35.5945 42.0146H35.5936L34.4002 42.0166L31.5194 42.0195L30.1629 42.0214C28.661 42.0229 27.1588 42.0238 25.657 42.0244H24.4881L24.1942 42.0253L19.4793 42.0302L14.6463 42.0351H14.6453L11.9276 42.038L9.61798 42.04C9.22365 42.0396 8.8283 42.0393 8.43244 42.041H7.35822C7.22504 42.0408 7.09132 42.0419 6.95783 42.0429L6.44025 42.0419H6.39142L6.34064 42.04C6.34092 42.0278 6.34127 42.0148 6.34162 42.0009L6.34455 41.8232V41.8183L6.34357 41.6025V40.8828L6.34259 40.3632C6.34173 39.8866 6.34087 39.4098 6.34064 38.9326V38.9316Z" fill="#F2F5F9" stroke="black" stroke-width="2"/>
<path d="M11.7504 4.93201C11.867 4.93137 11.867 4.93137 11.9859 4.93071C12.2423 4.92954 12.4987 4.92962 12.7551 4.92982C12.9336 4.92949 13.1121 4.92913 13.2905 4.92873C13.6643 4.9281 14.0382 4.92812 14.412 4.92857C14.891 4.92905 15.37 4.92763 15.849 4.92568C16.2174 4.92444 16.5859 4.92437 16.9543 4.92463C17.131 4.92459 17.3076 4.92415 17.4842 4.9233C17.7311 4.92227 17.9779 4.92283 18.2248 4.92381C18.2977 4.92317 18.3706 4.92252 18.4457 4.92186C18.8466 4.92536 19.1122 4.95248 19.4364 5.20703C19.611 5.46168 19.6309 5.51034 19.6323 5.79573C19.633 5.86401 19.6337 5.9323 19.6345 6.00265C19.6344 6.07726 19.6343 6.15187 19.6342 6.22874C19.6348 6.30756 19.6354 6.38638 19.636 6.46759C19.6377 6.72869 19.638 6.98977 19.6382 7.25087C19.6387 7.43215 19.6393 7.61343 19.6399 7.79471C19.641 8.17497 19.6413 8.55522 19.6412 8.93548C19.6411 9.42284 19.6435 9.91017 19.6465 10.3975C19.6484 10.772 19.6488 11.1465 19.6487 11.521C19.6489 11.7007 19.6496 11.8804 19.651 12.0601C19.6527 12.3114 19.6522 12.5626 19.6511 12.814C19.6521 12.8882 19.6531 12.9625 19.6541 13.039C19.6505 13.381 19.6367 13.5616 19.45 13.8596C19.0903 14.1795 18.6811 14.1234 18.2206 14.1256C18.1404 14.1263 18.0602 14.1269 17.9775 14.1277C17.7118 14.1297 17.446 14.1311 17.1803 14.1323C17.0896 14.1328 16.9989 14.1332 16.9054 14.1337C16.4254 14.1359 15.9455 14.1376 15.4655 14.1388C14.9695 14.1402 14.4735 14.1439 13.9774 14.1482C13.5962 14.151 13.215 14.152 12.8338 14.1525C12.6509 14.1531 12.468 14.1543 12.2852 14.1563C12.0293 14.159 11.7736 14.159 11.5178 14.1584C11.4422 14.1598 11.3666 14.1611 11.2887 14.1626C10.9142 14.1588 10.7581 14.1436 10.4507 13.9173C10.1452 13.5102 10.1796 13.1041 10.178 12.6141C10.1774 12.5395 10.1769 12.4649 10.1763 12.388C10.1746 12.1414 10.1736 11.8948 10.1727 11.6482C10.1724 11.5639 10.172 11.4796 10.1717 11.3928C10.1699 10.9467 10.1686 10.5007 10.1678 10.0547C10.1668 9.59419 10.1639 9.1337 10.1604 8.67319C10.1582 8.31885 10.1575 7.96452 10.1572 7.61018C10.1567 7.44041 10.1557 7.27065 10.1541 7.10089C10.152 6.86327 10.1521 6.62573 10.1527 6.3881C10.1516 6.31819 10.1505 6.24828 10.1494 6.17625C10.1534 5.73314 10.2237 5.46642 10.5388 5.12305C10.9111 4.89825 11.3253 4.9308 11.7504 4.93201Z" fill="#030202"/>
<path d="M11.672 29.026C11.7898 29.0253 11.7898 29.0253 11.91 29.0247C12.1693 29.0235 12.4284 29.0243 12.6876 29.0251C12.868 29.025 13.0484 29.0247 13.2288 29.0244C13.6067 29.024 13.9846 29.0246 14.3625 29.0257C14.8467 29.0272 15.3309 29.0264 15.8152 29.0248C16.1876 29.0239 16.5601 29.0242 16.9326 29.0249C17.1111 29.025 17.2896 29.0248 17.4682 29.0243C17.7178 29.0236 17.9673 29.0246 18.2169 29.026C18.3274 29.0252 18.3274 29.0252 18.4402 29.0244C18.8427 29.0286 19.1111 29.0546 19.4364 29.3105C19.6109 29.565 19.6309 29.6141 19.6328 29.8992C19.6337 29.9675 19.6346 30.0358 19.6354 30.1062C19.6355 30.1808 19.6356 30.2554 19.6356 30.3323C19.6363 30.4111 19.6371 30.4899 19.6378 30.5711C19.6399 30.8322 19.6406 31.0933 19.6412 31.3544C19.642 31.5357 19.6428 31.7169 19.6436 31.8982C19.645 32.2785 19.6457 32.6587 19.6459 33.039C19.6464 33.5264 19.6496 34.0137 19.6536 34.501C19.6561 34.8756 19.6568 35.25 19.6569 35.6246C19.6572 35.8042 19.6583 35.9839 19.6601 36.1636C19.6624 36.4149 19.662 36.6661 19.6609 36.9175C19.6622 36.9918 19.6635 37.066 19.6648 37.1426C19.6602 37.5157 19.6478 37.6619 19.4008 37.9632C19.0196 38.2458 18.7206 38.2258 18.2556 38.2264C18.1393 38.2271 18.1393 38.2271 18.0206 38.2277C17.7632 38.2289 17.5058 38.2295 17.2484 38.23C17.0698 38.2304 16.8912 38.2309 16.7126 38.2314C16.3375 38.2323 15.9625 38.2328 15.5875 38.2331C15.1073 38.2335 14.627 38.2355 14.1468 38.2379C13.7776 38.2395 13.4084 38.2399 13.0392 38.2401C12.8621 38.2403 12.6851 38.241 12.5081 38.2421C12.2602 38.2435 12.0123 38.2434 11.7643 38.2428C11.6913 38.2436 11.6184 38.2444 11.5432 38.2452C11.1193 38.2423 10.8095 38.2071 10.4525 37.9609C10.1569 37.5538 10.1562 37.1766 10.1598 36.6972C10.1593 36.6225 10.1589 36.5477 10.1584 36.4707C10.1573 36.2246 10.158 35.9785 10.1589 35.7324C10.1587 35.5609 10.1585 35.3894 10.1581 35.2179C10.1578 34.8589 10.1583 34.4999 10.1595 34.1409C10.161 33.681 10.1601 33.2211 10.1586 32.7611C10.1577 32.4071 10.158 32.0532 10.1586 31.6992C10.1588 31.5296 10.1586 31.36 10.158 31.1904C10.1573 30.9534 10.1583 30.7164 10.1598 30.4794C10.1592 30.4095 10.1587 30.3395 10.1582 30.2675C10.1625 29.8814 10.1869 29.6181 10.4525 29.3105C10.8295 29.001 11.202 29.0227 11.672 29.026Z" fill="#020101"/>
<path d="M11.4549 17.0258C11.5217 17.0253 11.5884 17.0249 11.6572 17.0245C11.8781 17.0233 12.0989 17.0234 12.3198 17.0236C12.4734 17.0232 12.6269 17.0229 12.7804 17.0225C13.1024 17.0218 13.4244 17.0219 13.7464 17.0223C14.1588 17.0228 14.5711 17.0214 14.9835 17.0194C15.3007 17.0182 15.6179 17.0181 15.9351 17.0184C16.0871 17.0183 16.2391 17.0179 16.3911 17.0171C16.6039 17.016 16.8166 17.0166 17.0294 17.0176C17.0921 17.0169 17.1547 17.0163 17.2193 17.0156C17.5991 17.0194 17.8396 17.0725 18.1406 17.3008C18.3517 17.6086 18.3866 17.8668 18.3134 18.2246C18.1028 18.4713 18.1028 18.4713 17.8815 18.6445C17.8387 18.6861 17.8387 18.6861 17.7951 18.7285C17.6122 18.7364 17.4291 18.7384 17.2461 18.738C17.1587 18.7381 17.1587 18.7381 17.0696 18.7381C16.8803 18.738 16.691 18.7374 16.5017 18.7367C16.3851 18.7366 16.2686 18.7365 16.152 18.7365C15.7189 18.736 15.2858 18.7348 14.8526 18.7338C13.8852 18.732 12.9177 18.7303 11.921 18.7285C11.921 20.6408 11.921 22.5532 11.921 24.5234C13.8879 24.5234 15.8549 24.5234 17.8815 24.5234C17.8815 24.1631 17.8815 23.8029 17.8815 23.4316C18.2833 22.9433 18.2833 22.9433 18.5715 22.9048C18.6378 22.902 18.704 22.8991 18.7723 22.8962C18.8379 22.8921 18.9035 22.888 18.9711 22.8838C19.2056 22.9338 19.3603 23.0076 19.5234 23.1818C19.7326 23.5866 19.6701 24.0819 19.6631 24.5234C19.6648 24.6302 19.6665 24.7369 19.6682 24.8469C19.6635 25.7156 19.6635 25.7156 19.3952 25.9774C19.3233 26.0242 19.2513 26.071 19.1772 26.1191C19.1487 26.1469 19.1202 26.1746 19.0908 26.2031C18.8355 26.2129 18.5821 26.2172 18.3266 26.218C18.2464 26.2185 18.1662 26.2191 18.0836 26.2197C17.8169 26.2213 17.5502 26.2223 17.2835 26.2231C17.1927 26.2235 17.1018 26.2238 17.0082 26.2242C16.5271 26.2259 16.046 26.2271 15.565 26.2279C15.0675 26.2288 14.5702 26.2317 14.0728 26.2351C13.6908 26.2373 13.3089 26.238 12.9269 26.2383C12.7435 26.2387 12.5602 26.2397 12.3768 26.2412C12.1202 26.2433 11.8636 26.2432 11.6069 26.2426C11.5311 26.2437 11.4552 26.2447 11.377 26.2459C11.0352 26.243 10.8431 26.2285 10.5423 26.0589C10.157 25.6397 10.1676 25.2344 10.1682 24.6983C10.1676 24.6237 10.167 24.5491 10.1664 24.4722C10.1648 24.2261 10.1645 23.9799 10.1643 23.7338C10.1637 23.5624 10.1631 23.3909 10.1625 23.2195C10.1615 22.8604 10.1612 22.5013 10.1613 22.1421C10.1613 21.6823 10.1589 21.2224 10.156 20.7626C10.154 20.4086 10.1537 20.0546 10.1538 19.7007C10.1536 19.5311 10.1528 19.3616 10.1515 19.1921C10.1498 18.9549 10.1503 18.7177 10.1513 18.4805C10.1504 18.4107 10.1494 18.341 10.1484 18.2691C10.1533 17.8239 10.2336 17.569 10.5388 17.2168C10.8546 17.0121 11.0899 17.0246 11.4549 17.0258Z" fill="#010101"/>
<path d="M12.0074 30.7383C13.9458 30.7383 15.8843 30.7383 17.8815 30.7383C17.8815 32.6506 17.8815 34.5629 17.8815 36.5332C15.943 36.5332 14.0046 36.5332 12.0074 36.5332C12.0074 34.6209 12.0074 32.7086 12.0074 30.7383Z" fill="#F47C64"/>
<path d="M12.0074 6.71875C13.9458 6.71875 15.8843 6.71875 17.8815 6.71875C17.8815 8.60336 17.8815 10.488 17.8815 12.4297C15.943 12.4297 14.0046 12.4297 12.0074 12.4297C12.0074 10.5451 12.0074 8.66047 12.0074 6.71875Z" fill="#F67D64"/>
<path d="M21.3517 16.9948C21.621 17.0869 21.7696 17.2547 21.9415 17.4688C21.9843 17.5103 21.9843 17.5103 22.0279 17.5527C22.0739 17.8266 22.0965 18.041 21.9318 18.2802C21.3974 18.8511 20.836 19.3955 20.2742 19.9407C20.1632 20.0487 20.0521 20.1568 19.9411 20.2649C19.7097 20.49 19.4781 20.7149 19.2465 20.9397C18.9492 21.2283 18.6523 21.5172 18.3556 21.8062C18.127 22.0287 17.8982 22.2511 17.6693 22.4734C17.5597 22.5799 17.4501 22.6865 17.3406 22.7931C17.1882 22.9415 17.0356 23.0896 16.8829 23.2376C16.8376 23.2818 16.7923 23.326 16.7457 23.3715C16.4613 23.6463 16.3302 23.7555 15.927 23.8096C15.43 23.8 15.1933 23.5045 14.858 23.1797C14.735 23.0711 14.6119 22.9626 14.4882 22.8547C12.8111 21.3855 12.8111 21.3855 12.7524 20.8911C12.7951 20.476 12.9177 20.363 13.2167 20.0723C13.4737 19.9474 13.6204 19.9521 13.9078 19.9883C14.6453 20.3501 15.2386 21.1002 15.8083 21.668C16.145 21.5348 16.3503 21.3245 16.601 21.0723C16.6444 21.0289 16.6879 20.9854 16.7326 20.9407C16.8268 20.8466 16.9207 20.7523 17.0145 20.6579C17.1632 20.5084 17.3128 20.3597 17.4626 20.2112C17.8885 19.7892 18.3141 19.3669 18.7364 18.9413C18.995 18.6809 19.2555 18.4223 19.5173 18.1648C19.6164 18.0666 19.7149 17.9676 19.8126 17.868C20.7349 16.9289 20.7349 16.9289 21.3517 16.9948Z" fill="#010101"/>
<path d="M23.8285 22.4014C23.9546 22.4003 23.9546 22.4003 24.0832 22.3992C24.1748 22.3993 24.2665 22.3994 24.3609 22.3994C24.4579 22.3989 24.5548 22.3983 24.6547 22.3977C24.9757 22.3961 25.2966 22.3958 25.6176 22.3956C25.8405 22.3951 26.0634 22.3945 26.2863 22.3939C26.7539 22.3929 27.2214 22.3926 27.6889 22.3927C28.2287 22.3928 28.7684 22.391 29.3082 22.3884C29.8281 22.3859 30.348 22.3853 30.8679 22.3854C31.0888 22.3852 31.3097 22.3845 31.5306 22.3832C31.8395 22.3815 32.1484 22.382 32.4574 22.383C32.5487 22.3821 32.64 22.3811 32.734 22.3802C33.2529 22.3845 33.5532 22.4239 33.9489 22.7598C34.131 22.983 34.1217 23.0946 34.1163 23.3844C34.0205 23.738 33.8896 23.8727 33.6034 24.1035C33.3956 24.2045 33.265 24.1987 33.0329 24.1999C32.9072 24.2008 32.9072 24.2008 32.7789 24.2017C32.6405 24.202 32.6405 24.202 32.4993 24.2024C32.3539 24.2032 32.3539 24.2032 32.2056 24.204C31.8837 24.2057 31.5618 24.2067 31.2399 24.2075C31.0753 24.208 31.0753 24.208 30.9074 24.2085C30.3865 24.2101 29.8655 24.2113 29.3446 24.212C28.7436 24.2129 28.1427 24.2151 27.5417 24.2185C27.021 24.2213 26.5002 24.2223 25.9795 24.2226C25.7581 24.2231 25.5367 24.224 25.3153 24.2256C25.0055 24.2276 24.6958 24.2276 24.386 24.227C24.2944 24.228 24.2029 24.2291 24.1085 24.2302C23.5895 24.2267 23.2846 24.1923 22.8917 23.8516C22.6765 23.5377 22.6794 23.3835 22.719 23.0117C23.0045 22.5655 23.2951 22.4034 23.8285 22.4014Z" fill="#070706"/>
<path d="M23.8083 10.2343C23.8923 10.2338 23.9762 10.2333 24.0627 10.2328C24.1551 10.2328 24.2475 10.2327 24.3427 10.2326C24.4883 10.2319 24.4883 10.2319 24.6368 10.2313C24.9591 10.2301 25.2814 10.2295 25.6037 10.229C25.8271 10.2286 26.0505 10.2281 26.2739 10.2276C26.6828 10.2268 27.0917 10.2263 27.5006 10.226C28.1023 10.2257 28.704 10.2242 29.3058 10.2217C29.8269 10.2197 30.3481 10.2191 30.8693 10.2189C31.091 10.2187 31.3127 10.218 31.5344 10.2169C31.8445 10.2155 32.1544 10.2156 32.4644 10.2162C32.5563 10.2154 32.6482 10.2146 32.7428 10.2138C33.5295 10.2182 33.5295 10.2182 33.8625 10.498C34.093 10.8342 34.1073 11.1106 34.0353 11.5059C33.8468 11.7373 33.7008 11.8784 33.4306 12.0098C33.2993 12.018 33.1677 12.0211 33.0362 12.0216C32.9531 12.022 32.87 12.0225 32.7844 12.023C32.693 12.0231 32.6015 12.0232 32.5073 12.0233C32.3631 12.0239 32.3631 12.0239 32.2161 12.0246C31.897 12.0258 31.5779 12.0264 31.2588 12.0268C31.0376 12.0273 30.8164 12.0278 30.5951 12.0283C30.1901 12.029 29.785 12.0296 29.38 12.0298C28.7842 12.0302 28.1885 12.0317 27.5927 12.0341C27.0765 12.0361 26.5603 12.0368 26.0441 12.0369C25.8246 12.0372 25.6052 12.0379 25.3857 12.039C25.0786 12.0404 24.7716 12.0402 24.4645 12.0397C24.3737 12.0405 24.2829 12.0413 24.1894 12.042C23.6345 12.039 23.244 11.9829 22.8108 11.6161C22.6706 11.3194 22.7025 11.0518 22.8054 10.75C23.1235 10.3772 23.3191 10.236 23.8083 10.2343Z" fill="#060606"/>
<path d="M23.7252 34.3378C23.8099 34.3373 23.8945 34.3369 23.9818 34.3364C24.075 34.3363 24.1682 34.3362 24.2642 34.3361C24.3621 34.3357 24.46 34.3352 24.5609 34.3348C24.886 34.3336 25.2111 34.333 25.5362 34.3325C25.7616 34.3321 25.9869 34.3316 26.2122 34.3311C26.6247 34.3303 27.0371 34.3298 27.4496 34.3295C28.0565 34.3292 28.6635 34.3277 29.2704 34.3253C29.7961 34.3232 30.3218 34.3226 30.8475 34.3224C31.0712 34.3222 31.2948 34.3215 31.5184 34.3204C31.8311 34.319 32.1438 34.3191 32.4565 34.3197C32.5955 34.3185 32.5955 34.3185 32.7374 34.3173C33.5222 34.3216 33.5222 34.3216 33.8625 34.6016C34.081 34.8564 34.1217 34.9811 34.1217 35.3154C34.0131 35.6849 33.9228 35.8008 33.6033 36.0293C33.2725 36.0922 32.9458 36.0866 32.6096 36.0836C32.5091 36.0844 32.4086 36.0851 32.3051 36.0859C31.973 36.0877 31.6409 36.0865 31.3088 36.0851C31.078 36.0853 30.8473 36.0858 30.6165 36.0863C30.1329 36.087 29.6493 36.086 29.1656 36.084C28.6069 36.0818 28.0483 36.0825 27.4897 36.0848C27.0095 36.0867 26.5293 36.087 26.0492 36.0859C25.7626 36.0852 25.4761 36.0853 25.1895 36.0865C24.87 36.0876 24.5506 36.086 24.231 36.0836C24.1363 36.0845 24.0416 36.0853 23.9441 36.0862C23.3023 36.0775 23.3023 36.0775 22.964 35.8266C22.7464 35.5286 22.667 35.302 22.719 34.9375C22.9625 34.5067 23.2323 34.3395 23.7252 34.3378Z" fill="#010100"/>
<path d="M29.1368 30.8074C29.2302 30.8063 29.3237 30.8052 29.4199 30.8041C29.5209 30.8035 29.6218 30.8029 29.7259 30.8023C29.8297 30.8016 29.9336 30.8009 30.0406 30.8002C30.2605 30.799 30.4805 30.7981 30.7004 30.7975C31.0366 30.796 31.3727 30.7923 31.7088 30.7886C31.9225 30.7878 32.1361 30.7871 32.3498 30.7865C32.5004 30.7843 32.5004 30.7843 32.6541 30.7821C33.198 30.7835 33.5382 30.7972 33.9489 31.1582C34.131 31.3815 34.1217 31.493 34.1163 31.7828C34.0197 32.1397 33.8986 32.275 33.6033 32.502C33.3368 32.5896 33.0866 32.5974 32.8065 32.5995C32.6716 32.6007 32.6716 32.6007 32.5339 32.6019C32.3888 32.6025 32.3888 32.6025 32.2408 32.603C32.0909 32.6037 32.0909 32.6037 31.938 32.6044C31.7267 32.6052 31.5154 32.6058 31.3041 32.6061C30.9813 32.6069 30.6585 32.6095 30.3356 32.6122C30.1302 32.6127 29.9248 32.6132 29.7194 32.6135C29.6231 32.6145 29.5267 32.6156 29.4274 32.6166C28.9449 32.6153 28.5705 32.6136 28.1612 32.334C27.9304 31.9975 27.917 31.7218 27.9884 31.3262C28.3255 30.901 28.6026 30.8128 29.1368 30.8074Z" fill="#060606"/>
<path d="M29.1196 18.883C29.2093 18.8821 29.2989 18.8813 29.3914 18.8805C29.5367 18.88 29.5367 18.88 29.685 18.8794C29.7848 18.8789 29.8847 18.8785 29.9875 18.878C30.199 18.8772 30.4104 18.8766 30.6219 18.8763C30.9446 18.8755 31.2672 18.8729 31.5899 18.8702C31.7954 18.8697 32.0009 18.8692 32.2064 18.8689C32.3026 18.8679 32.3988 18.8669 32.4979 18.8658C33.0183 18.8672 33.4082 18.8914 33.8625 19.1484C34.093 19.4846 34.1073 19.7609 34.0353 20.1562C33.8468 20.3877 33.7008 20.5288 33.4306 20.6602C33.279 20.6695 33.127 20.6735 32.9751 20.675C32.88 20.6761 32.7848 20.6772 32.6867 20.6783C32.5318 20.6792 32.5318 20.6792 32.3737 20.6802C32.2678 20.6808 32.1619 20.6815 32.0528 20.6822C31.8283 20.6834 31.6037 20.6843 31.3792 20.6849C31.036 20.6861 30.6929 20.6901 30.3498 20.6938C30.1318 20.6946 29.9138 20.6953 29.6958 20.6959C29.5932 20.6974 29.4906 20.6989 29.3849 20.7004C28.8393 20.699 28.4839 20.6928 28.0748 20.3242C27.9247 20.0323 27.9369 19.7188 27.9884 19.4004C28.3201 18.982 28.5928 18.8868 29.1196 18.883Z" fill="#060606"/>
<path d="M29.5811 6.74696C29.6945 6.74656 29.8079 6.74616 29.9248 6.74575C30.1644 6.74513 30.404 6.74602 30.6436 6.74799C30.9501 6.75038 31.2564 6.749 31.5629 6.74649C31.8561 6.7446 32.1493 6.74592 32.4426 6.74696C32.5524 6.74611 32.6621 6.74526 32.7753 6.74439C33.6208 6.75532 33.6208 6.75532 33.8883 7.00421C34.0831 7.29369 34.0969 7.46067 34.0785 7.79742C34.0094 8.08717 33.8404 8.22285 33.6033 8.39844C33.38 8.507 33.2159 8.49488 32.9658 8.49729C32.8201 8.4989 32.8201 8.4989 32.6714 8.50055C32.5132 8.50148 32.5132 8.50148 32.3518 8.50243C32.1898 8.50345 32.1898 8.50345 32.0245 8.50449C31.7955 8.50565 31.5665 8.50658 31.3376 8.50721C31.0448 8.50814 30.752 8.51103 30.4592 8.51436C30.1794 8.51709 29.8997 8.51747 29.6199 8.51818C29.4625 8.52039 29.4625 8.52039 29.3019 8.52264C29.2039 8.52239 29.1059 8.52215 29.005 8.52189C28.876 8.52263 28.876 8.52263 28.7444 8.52339C28.4408 8.47106 28.2958 8.35102 28.0748 8.14648C27.9766 7.95563 27.9655 7.82877 27.956 7.61633C27.9518 7.55257 27.9475 7.4888 27.9432 7.4231C27.995 7.19359 28.079 7.05515 28.2542 6.8929C28.6463 6.68002 29.145 6.74359 29.5811 6.74696Z" fill="#010101"/>
<path d="M24.3549 30.796C24.431 30.7947 24.5071 30.7933 24.5855 30.7919C25.1142 30.7915 25.503 30.857 25.9044 31.2212C26.0465 31.4975 26.0401 31.6933 26.0016 31.998C25.7915 32.3384 25.6109 32.4751 25.2241 32.5859C24.9233 32.6143 24.6245 32.617 24.3225 32.6174C24.2021 32.6205 24.2021 32.6205 24.0794 32.6237C23.582 32.6257 23.2807 32.582 22.8917 32.25C22.6765 31.9361 22.6794 31.7819 22.719 31.4102C23.1108 30.7753 23.6633 30.7936 24.3549 30.796Z" fill="#080807"/>
<path d="M24.2955 18.8755C24.3769 18.8738 24.4583 18.872 24.5422 18.8702C25.0061 18.8677 25.3459 18.8861 25.7424 19.1484C25.9474 19.4539 26.069 19.7072 26.0016 20.0723C25.7855 20.4069 25.6104 20.5497 25.2241 20.6602C24.9377 20.6862 24.6532 20.6874 24.3657 20.6864C24.2896 20.6878 24.2135 20.6891 24.135 20.6905C23.6026 20.6909 23.2251 20.6173 22.8108 20.2665C22.6706 19.9698 22.7025 19.7022 22.8054 19.4004C23.2708 18.8551 23.6101 18.8791 24.2955 18.8755Z" fill="#070707"/>
<path d="M24.3495 6.76599C24.4518 6.76323 24.5541 6.76047 24.6596 6.75763C25.4997 6.75256 25.4997 6.75256 25.7647 7.00449C25.9875 7.32756 26.0482 7.50159 26.0016 7.89453C25.857 8.13787 25.6904 8.35736 25.409 8.4531C25.0364 8.5122 24.6614 8.50866 24.2847 8.51392C24.1576 8.51863 24.1576 8.51863 24.0279 8.52343C23.3272 8.5317 23.3272 8.5317 23.0098 8.28099C22.7874 8.04336 22.7261 7.97307 22.6974 7.65833C22.7218 7.35536 22.792 7.21195 22.9781 6.9707C23.3971 6.69914 23.8569 6.76832 24.3495 6.76599Z" fill="#040404"/>
</g>
<defs>
<clipPath id="clip0_6_22">
<rect width="44.2286" height="43" fill="white"/>
</clipPath>
</defs>
</svg>
