<svg width="32" height="32" viewBox="0 0 32 32" fill="none" xmlns="http://www.w3.org/2000/svg">
<path d="M18.7246 -7.43769e-06C19.2768 -0.0102276 19.8149 0.169642 20.2451 0.506828C20.6755 0.844171 20.9705 1.31803 21.0781 1.8457L21.6787 4.73339C22.2117 4.98628 22.7269 5.27422 23.2207 5.59374L26.0811 4.65331C26.324 4.57556 26.5783 4.53719 26.834 4.53905C27.2467 4.53947 27.6524 4.64558 28.0098 4.84667C28.3671 5.0478 28.6647 5.33652 28.8711 5.68456L31.6484 10.2695C31.9399 10.7298 32.0555 11.2757 31.9736 11.8105C31.8917 12.3453 31.6177 12.8349 31.2012 13.1924L28.9414 15.1172V16.8711L31.166 18.8535C31.5767 19.2041 31.8495 19.6832 31.9375 20.208C32.0255 20.7327 31.9231 21.2709 31.6484 21.7305L28.9648 26.3144C28.7585 26.6625 28.4618 26.9522 28.1045 27.1533C27.7471 27.3544 27.3415 27.4605 26.9287 27.4609C26.6729 27.4628 26.4178 27.4245 26.1748 27.3467L23.3262 26.4062C22.8284 26.7258 22.3092 27.0138 21.7725 27.2666L21.1728 30.1543C21.0652 30.6819 20.7701 31.1558 20.3398 31.4932C19.9095 31.8305 19.3708 32.0103 18.8184 32H13.2627C12.7103 32.0103 12.1716 31.8305 11.7412 31.4932C11.3109 31.1558 11.0158 30.6819 10.9082 30.1543L10.3086 27.2666C9.77564 27.0137 9.26038 26.7257 8.7666 26.4062L5.90625 27.3467C5.6632 27.4245 5.40818 27.4628 5.15234 27.4609C4.73956 27.4605 4.33394 27.3545 3.97656 27.1533C3.61922 26.9522 3.32259 26.6625 3.11621 26.3144L0.337889 21.7305C0.0506986 21.2665 -0.0579588 20.7184 0.0302717 20.1836C0.11862 19.6486 0.399031 19.1606 0.821287 18.8076L3.0459 16.8828V15.1289L0.821287 13.1465C0.410631 12.7959 0.137846 12.3168 0.049803 11.792C-0.0382086 11.2673 0.0632461 10.729 0.337889 10.2695L3.11621 5.68456C3.32258 5.33668 3.61935 5.04776 3.97656 4.84667C4.33394 4.64553 4.73956 4.53949 5.15234 4.53905C5.40562 4.52228 5.66059 4.54509 5.90625 4.60741L8.70703 5.59374C9.20487 5.27417 9.72394 4.98621 10.2607 4.73339L10.8613 1.8457C10.969 1.31804 11.264 0.84417 11.6943 0.506828C12.1247 0.169486 12.6634 -0.0103151 13.2158 -7.43769e-06H18.7246ZM13.2158 2.24706L12.3799 6.36132C11.2153 6.77192 10.1346 7.38067 9.18945 8.16015L5.15234 6.83105L2.375 11.416L5.57617 14.2461C5.35852 15.4325 5.35852 16.6476 5.57617 17.834L2.375 20.584L5.15234 25.1689L9.20117 23.8848C10.1496 24.6536 11.2245 25.2623 12.3799 25.6846L13.2158 29.7529H18.7715L19.6074 25.6387C20.7719 25.2281 21.8518 24.6183 22.7969 23.8389L26.834 25.1689L29.6123 20.584L26.4102 17.7539C26.6278 16.5675 26.6278 15.3524 26.4102 14.166L29.6123 11.416L26.834 6.83105L22.7852 8.11523C21.8368 7.34643 20.7627 6.73767 19.6074 6.31542L18.7715 2.24706H13.2158ZM14.6152 9.25585C15.9852 8.99052 17.4058 9.126 18.6963 9.64648C19.9867 10.1669 21.0892 11.0489 21.8652 12.1797C22.6413 13.3105 23.0557 14.6399 23.0557 16C23.0651 16.9056 22.8887 17.8041 22.5371 18.6426C22.1856 19.4808 21.6663 20.2425 21.0088 20.8828C20.3511 21.5232 19.5682 22.0297 18.707 22.3721C17.846 22.7143 16.9232 22.8861 15.9932 22.8769C14.5964 22.8769 13.2307 22.4733 12.0693 21.7178C10.9081 20.9622 10.0033 19.8881 9.46875 18.6318C8.93421 17.3753 8.7939 15.9921 9.0664 14.6582C9.3389 13.3245 10.0115 12.0993 10.999 11.1377C11.9866 10.1761 13.2454 9.52124 14.6152 9.25585ZM15.7607 11.416C15.2175 11.4304 14.6804 11.5382 14.1748 11.7353C13.5971 11.9607 13.0719 12.2981 12.6318 12.7266C12.1917 13.1551 11.8457 13.6669 11.6143 14.2295C11.4117 14.7218 11.3 15.2445 11.2852 15.7734V16.2266C11.3 16.7555 11.4117 17.2782 11.6143 17.7705C11.8457 18.3331 12.1917 18.8449 12.6318 19.2734C13.0719 19.7019 13.5971 20.0393 14.1748 20.2646C14.6804 20.4618 15.2175 20.5696 15.7607 20.584H16.2266C16.7697 20.5695 17.3069 20.4619 17.8125 20.2646C18.3901 20.0393 18.9145 19.7018 19.3545 19.2734C19.7946 18.8449 20.1416 18.3331 20.373 17.7705C20.6044 17.208 20.7166 16.6057 20.7021 16C20.7166 15.3943 20.6044 14.7919 20.373 14.2295C20.1416 13.6669 19.7946 13.1551 19.3545 12.7266C18.9145 12.2982 18.3901 11.9607 17.8125 11.7353C17.3069 11.5381 16.7697 11.4305 16.2266 11.416H15.7607Z" fill="black"/>
</svg>
