<svg width="34" height="34" viewBox="0 0 34 34" fill="none" xmlns="http://www.w3.org/2000/svg">
<path d="M31.3369 1.00684C32.1701 1.0737 32.9988 1.63677 32.999 2.5332V32.4951L32.9912 32.584C32.9849 32.6192 32.9732 32.6524 32.96 32.6846C32.9573 32.6909 32.954 32.6969 32.9512 32.7031C32.9418 32.7234 32.9318 32.743 32.9199 32.7617C32.9138 32.7715 32.9072 32.7808 32.9004 32.79C32.8887 32.806 32.8758 32.8205 32.8623 32.835C32.8558 32.8419 32.8496 32.8489 32.8428 32.8555C32.8262 32.8714 32.8087 32.8859 32.79 32.8994C32.7838 32.9039 32.7779 32.9089 32.7715 32.9131C32.7514 32.9263 32.73 32.937 32.708 32.9473C32.7014 32.9503 32.6952 32.9542 32.6885 32.957C32.6599 32.9688 32.6305 32.979 32.5996 32.9854L32.499 32.9951H4.82129L4.38574 32.9805C3.39603 32.9131 2.59137 32.6128 2.00781 32.1201C1.37637 31.5869 1.04312 30.8605 1.00391 30.0713L1 29.9121V4.94434C1.0003 2.65666 3.33142 1 5.92871 1H31.1709L31.3369 1.00684ZM4.82129 27.8301L4.80664 27.8291C3.7915 27.8316 3.09147 28.0981 2.65332 28.4678C2.21994 28.8337 2.00011 29.3362 2 29.9121C2 30.4882 2.21984 30.9904 2.65332 31.3564C3.03842 31.6815 3.62596 31.9262 4.45215 31.9824L4.82129 31.9951H31.999V27.8291H4.83008L4.82129 27.8301ZM2 27.7109C2.00248 27.7088 2.00532 27.7062 2.00781 27.7041C2.17522 27.5628 2.36055 27.4368 2.56348 27.3281C2.36101 27.2196 2.17489 27.0961 2.00781 26.9551C2.00512 26.9528 2.00268 26.9495 2 26.9473V27.7109ZM4.45215 22.6758C3.62577 22.732 3.03848 22.9776 2.65332 23.3027C2.21985 23.6687 2 24.1709 2 24.7471C2.0001 25.3231 2.21995 25.8255 2.65332 26.1914C3.03842 26.5163 3.62622 26.7612 4.45215 26.8174L4.81348 26.8291H31.999V22.6641H4.82129L4.45215 22.6758ZM5.92871 2C3.63514 2 2.00031 3.42834 2 4.94434V22.5449C2.0026 22.5427 2.00521 22.5403 2.00781 22.5381C2.67475 21.9751 3.63073 21.6641 4.82129 21.6641H31.999V2.5332C31.9987 2.35997 31.782 2.04308 31.2764 2.00391L31.1709 2H5.92871ZM23.7432 7.89844C23.9708 7.94521 24.1416 8.14719 24.1416 8.38867C24.1414 8.62997 23.9707 8.83219 23.7432 8.87891L23.6416 8.88867H10.3564C10.0805 8.88866 9.8567 8.66459 9.85645 8.38867C9.85645 8.11254 10.0803 7.88868 10.3564 7.88867H23.6416L23.7432 7.89844Z" fill="black"/>
<path d="M31.3369 1.00684L31.3769 0.508438C31.3704 0.507919 31.364 0.507526 31.3575 0.507259L31.3369 1.00684ZM32.999 2.5332H33.499V2.53305L32.999 2.5332ZM32.999 32.4951L33.4971 32.5389C33.4984 32.5243 33.499 32.5097 33.499 32.4951H32.999ZM32.9912 32.584L33.4834 32.6718C33.486 32.6572 33.488 32.6425 33.4893 32.6278L32.9912 32.584ZM32.96 32.6846L33.4225 32.8744L33.4226 32.8742L32.96 32.6846ZM32.9512 32.7031L32.4968 32.4943L32.4968 32.4945L32.9512 32.7031ZM32.9199 32.7617L33.3424 33.0292L33.3425 33.029L32.9199 32.7617ZM32.9004 32.79L32.4974 32.4941L32.4972 32.4943L32.9004 32.79ZM32.8623 32.835L33.2278 33.1762L33.2279 33.176L32.8623 32.835ZM32.8428 32.8555L32.4971 32.4942L32.497 32.4943L32.8428 32.8555ZM32.79 32.8994L33.083 33.3046L33.0831 33.3045L32.79 32.8994ZM32.7715 32.9131L32.4975 32.4948L32.4975 32.4949L32.7715 32.9131ZM32.708 32.9473L32.4975 32.4938L32.4974 32.4938L32.708 32.9473ZM32.6885 32.957L32.8788 33.4194L32.879 33.4193L32.6885 32.957ZM32.5996 32.9854L32.6479 33.483C32.6653 33.4813 32.6826 33.4787 32.6997 33.4752L32.5996 32.9854ZM32.499 32.9951V33.4951C32.5152 33.4951 32.5313 33.4943 32.5473 33.4928L32.499 32.9951ZM4.82129 32.9951L4.80448 33.4948C4.81008 33.495 4.81569 33.4951 4.82129 33.4951V32.9951ZM4.38574 32.9805L4.35181 33.4793C4.35751 33.4797 4.36322 33.48 4.36894 33.4802L4.38574 32.9805ZM2.00781 32.1201L1.68521 32.5021L1.68524 32.5021L2.00781 32.1201ZM1.00391 30.0713L0.503899 30.0836L0.504522 30.0961L1.00391 30.0713ZM1 29.9121H0.499849L0.50015 29.9244L1 29.9121ZM1 4.94434L0.5 4.94427V4.94434H1ZM31.1709 1L31.1915 0.500423C31.1846 0.500141 31.1778 0.5 31.1709 0.5V1ZM4.82129 27.8301L4.78803 28.329C4.81752 28.3309 4.84713 28.3303 4.8765 28.327L4.82129 27.8301ZM4.80664 27.8291L4.8399 27.3302C4.82842 27.3294 4.81692 27.3291 4.80541 27.3291L4.80664 27.8291ZM2.65332 28.4678L2.3309 28.0856L2.33073 28.0858L2.65332 28.4678ZM2 29.9121L1.5 29.912V29.9121H2ZM2.65332 31.3564L2.33075 31.7385L2.33081 31.7385L2.65332 31.3564ZM4.45215 31.9824L4.41821 32.4813C4.42379 32.4816 4.42937 32.4819 4.43496 32.4821L4.45215 31.9824ZM4.82129 31.9951L4.8041 32.4948C4.80983 32.495 4.81556 32.4951 4.82129 32.4951V31.9951ZM31.999 31.9951V32.4951C32.2752 32.4951 32.499 32.2713 32.499 31.9951H31.999ZM31.999 27.8291H32.499C32.499 27.553 32.2752 27.3291 31.999 27.3291V27.8291ZM4.83008 27.8291V27.3291C4.81163 27.3291 4.7932 27.3301 4.77486 27.3322L4.83008 27.8291ZM2 27.7109H1.5C1.5 27.9058 1.61325 28.083 1.79015 28.1648C1.96706 28.2466 2.17537 28.2181 2.32386 28.0919L2 27.7109ZM2.00781 27.7041L1.6853 27.322L1.6852 27.3221L2.00781 27.7041ZM2.56348 27.3281L2.79954 27.7689C2.96201 27.6819 3.06344 27.5125 3.06348 27.3282C3.06351 27.1439 2.96215 26.9745 2.79971 26.8875L2.56348 27.3281ZM2.00781 26.9551L1.68523 27.3371L1.6853 27.3372L2.00781 26.9551ZM2 26.9473L2.32392 26.5664C2.17544 26.4401 1.96712 26.4116 1.79019 26.4934C1.61327 26.5752 1.5 26.7524 1.5 26.9473H2ZM4.45215 22.6758L4.43628 22.176C4.43026 22.1762 4.42424 22.1765 4.41823 22.1769L4.45215 22.6758ZM2.65332 23.3027L2.33082 22.9206L2.33075 22.9207L2.65332 23.3027ZM2 24.7471H1.5V24.7472L2 24.7471ZM2.65332 26.1914L2.33075 26.5734L2.33092 26.5736L2.65332 26.1914ZM4.45215 26.8174L4.41822 27.3162C4.42412 27.3166 4.43003 27.3169 4.43594 27.3171L4.45215 26.8174ZM4.81348 26.8291L4.79727 27.3288C4.80267 27.329 4.80807 27.3291 4.81348 27.3291V26.8291ZM31.999 26.8291V27.3291C32.2752 27.3291 32.499 27.1052 32.499 26.8291H31.999ZM31.999 22.6641H32.499C32.499 22.3879 32.2752 22.1641 31.999 22.1641V22.6641ZM4.82129 22.6641V22.1641C4.816 22.1641 4.81071 22.1641 4.80542 22.1643L4.82129 22.6641ZM2 4.94434L1.5 4.94423V4.94434H2ZM2 22.5449H1.5C1.5 22.7398 1.61325 22.917 1.79016 22.9988C1.96706 23.0806 2.17538 23.0521 2.32387 22.9259L2 22.5449ZM2.00781 22.5381L1.6853 22.156L1.68525 22.156L2.00781 22.5381ZM4.82129 21.6641V21.1641H4.82128L4.82129 21.6641ZM31.999 21.6641V22.1641C32.2752 22.1641 32.499 21.9402 32.499 21.6641H31.999ZM31.999 2.5332H32.499L32.499 2.53216L31.999 2.5332ZM31.2764 2.00391L31.315 1.5054C31.3083 1.50488 31.3016 1.5045 31.2949 1.50425L31.2764 2.00391ZM31.1709 2L31.1894 1.50034C31.1832 1.50011 31.1771 1.5 31.1709 1.5V2ZM23.7432 7.89844L23.8438 7.40867C23.8264 7.40509 23.8087 7.40244 23.791 7.40073L23.7432 7.89844ZM24.1416 8.38867L24.6416 8.38913V8.38867H24.1416ZM23.7432 8.87891L23.791 9.37661C23.8087 9.37491 23.8263 9.37226 23.8437 9.36869L23.7432 8.87891ZM23.6416 8.88867V9.38867C23.6576 9.38867 23.6736 9.38791 23.6895 9.38638L23.6416 8.88867ZM10.3564 8.88867L10.3564 9.38867H10.3564V8.88867ZM9.85645 8.38867H9.35645V8.38913L9.85645 8.38867ZM10.3564 7.88867V7.38867H10.3564L10.3564 7.88867ZM23.6416 7.88867L23.6895 7.39097C23.6736 7.38944 23.6576 7.38867 23.6416 7.38867V7.88867ZM31.3369 1.00684L31.2969 1.50523C31.9931 1.5611 32.4989 2.00469 32.499 2.53335L32.999 2.5332L33.499 2.53305C33.4986 1.26884 32.3471 0.586295 31.3769 0.508438L31.3369 1.00684ZM32.999 2.5332H32.499V32.4951H32.999H33.499V2.5332H32.999ZM32.999 32.4951L32.5009 32.4513L32.4931 32.5402L32.9912 32.584L33.4893 32.6278L33.4971 32.5389L32.999 32.4951ZM32.9912 32.584L32.499 32.4962C32.5005 32.4874 32.5022 32.4824 32.5022 32.4823C32.5022 32.4822 32.5019 32.4832 32.5011 32.4853C32.5003 32.4875 32.4991 32.4906 32.4973 32.495L32.96 32.6846L33.4226 32.8742C33.4411 32.8291 33.468 32.7581 33.4834 32.6718L32.9912 32.584ZM32.96 32.6846L32.4974 32.4948C32.5004 32.4875 32.503 32.4817 32.5047 32.4781C32.5055 32.4763 32.5062 32.4749 32.5066 32.474C32.5069 32.4735 32.507 32.4731 32.5072 32.4729C32.5073 32.4727 32.5073 32.4725 32.5073 32.4725C32.5073 32.4725 32.5073 32.4726 32.5073 32.4726C32.5073 32.4727 32.5072 32.4728 32.5072 32.4729C32.507 32.4732 32.5069 32.4734 32.5067 32.4739C32.5063 32.4747 32.5055 32.4762 32.5047 32.4779C32.503 32.4813 32.5001 32.4872 32.4968 32.4943L32.9512 32.7031L33.4055 32.9119C33.4037 32.9159 33.4023 32.9187 33.4021 32.9191C33.402 32.9192 33.402 32.9192 33.4024 32.9185C33.4026 32.918 33.4033 32.9166 33.404 32.9153C33.4064 32.9103 33.4143 32.8944 33.4225 32.8744L32.96 32.6846ZM32.9512 32.7031L32.4968 32.4945L32.4974 32.4944L32.9199 32.7617L33.3425 33.029C33.3698 32.9859 33.3902 32.9453 33.4056 32.9117L32.9512 32.7031ZM32.9199 32.7617L32.4975 32.4943L32.4974 32.4941L32.9004 32.79L33.3034 33.0859C33.3138 33.0718 33.3277 33.0523 33.3424 33.0292L32.9199 32.7617ZM32.9004 32.79L32.4972 32.4943L32.4967 32.4939L32.8623 32.835L33.2279 33.176C33.2457 33.1569 33.2744 33.1255 33.3036 33.0858L32.9004 32.79ZM32.8623 32.835L32.4968 32.4938C32.4939 32.4969 32.4911 32.4999 32.4898 32.5014C32.489 32.5022 32.4885 32.5028 32.488 32.5033C32.4878 32.5035 32.4877 32.5036 32.4876 32.5037C32.4875 32.5038 32.4875 32.5039 32.4875 32.5039C32.4875 32.5039 32.4875 32.5038 32.4876 32.5037C32.4877 32.5036 32.4879 32.5034 32.4881 32.5032C32.4885 32.5028 32.4891 32.5022 32.4899 32.5014C32.4914 32.4997 32.4939 32.4973 32.4971 32.4942L32.8428 32.8555L33.1884 33.2168C33.2014 33.2043 33.2118 33.1934 33.2179 33.1868C33.2209 33.1836 33.2237 33.1806 33.2252 33.179C33.227 33.177 33.2275 33.1765 33.2278 33.1762L32.8623 32.835ZM32.8428 32.8555L32.497 32.4943L32.497 32.4943L32.79 32.8994L33.0831 33.3045C33.1202 33.2777 33.1553 33.2485 33.1885 33.2166L32.8428 32.8555ZM32.79 32.8994L32.4971 32.4942C32.4908 32.4988 32.4856 32.5027 32.4826 32.505C32.4811 32.5061 32.4797 32.5072 32.479 32.5077C32.4786 32.5081 32.4783 32.5083 32.4781 32.5084C32.478 32.5085 32.4779 32.5086 32.4779 32.5086C32.4778 32.5086 32.4778 32.5087 32.4778 32.5087C32.4778 32.5087 32.4778 32.5086 32.4779 32.5086C32.4779 32.5086 32.478 32.5085 32.4781 32.5084C32.4783 32.5083 32.4786 32.508 32.479 32.5077C32.4798 32.5071 32.4811 32.5062 32.4827 32.505C32.4858 32.5027 32.4909 32.4991 32.4975 32.4948L32.7715 32.9131L33.0455 33.3313C33.0642 33.3191 33.0788 33.3079 33.0839 33.3041C33.0853 33.303 33.0866 33.3019 33.0873 33.3015C33.0877 33.3012 33.0879 33.301 33.0881 33.3009C33.0882 33.3007 33.0883 33.3007 33.0883 33.3007C33.0882 33.3007 33.0877 33.3011 33.0868 33.3018C33.086 33.3024 33.0847 33.3034 33.083 33.3046L32.79 32.8994ZM32.7715 32.9131L32.4975 32.4949C32.5029 32.4913 32.5063 32.4895 32.5063 32.4895C32.5063 32.4895 32.5057 32.4898 32.5042 32.4905C32.5027 32.4913 32.5006 32.4923 32.4975 32.4938L32.708 32.9473L32.9186 33.4008C32.9488 33.3867 32.9955 33.3641 33.0455 33.3313L32.7715 32.9131ZM32.708 32.9473L32.4974 32.4938C32.4861 32.499 32.4771 32.5037 32.4718 32.5064C32.469 32.5079 32.4667 32.5091 32.4655 32.5098C32.4648 32.5101 32.4642 32.5105 32.4639 32.5106C32.4637 32.5107 32.4636 32.5108 32.4635 32.5108C32.4635 32.5108 32.4634 32.5109 32.4634 32.5109C32.4634 32.5109 32.4634 32.5109 32.4634 32.5109C32.4634 32.5109 32.4634 32.5109 32.4635 32.5108C32.4636 32.5108 32.4637 32.5107 32.4639 32.5106C32.4643 32.5104 32.4648 32.5101 32.4655 32.5098C32.4669 32.509 32.4691 32.5079 32.4719 32.5065C32.4775 32.5038 32.4865 32.4995 32.498 32.4947L32.6885 32.957L32.879 33.4193C32.8938 33.4132 32.9061 33.4074 32.915 33.403C32.9235 33.3988 32.9304 33.3951 32.9332 33.3936C32.934 33.3932 32.9347 33.3928 32.9351 33.3926C32.9356 33.3923 32.9358 33.3923 32.936 33.3922C32.9363 33.392 32.9356 33.3924 32.9345 33.3929C32.9324 33.394 32.9266 33.3971 32.9186 33.4007L32.708 32.9473ZM32.6885 32.957L32.4981 32.4947C32.4922 32.4971 32.4898 32.4979 32.4899 32.4979C32.4901 32.4978 32.4935 32.4967 32.4995 32.4955L32.5996 32.9854L32.6997 33.4752C32.7728 33.4603 32.8342 33.4378 32.8788 33.4194L32.6885 32.957ZM32.5996 32.9854L32.5513 32.4877L32.4507 32.4975L32.499 32.9951L32.5473 33.4928L32.6479 33.483L32.5996 32.9854ZM32.499 32.9951V32.4951H4.82129V32.9951V33.4951H32.499V32.9951ZM4.82129 32.9951L4.8381 32.4954L4.40255 32.4808L4.38574 32.9805L4.36894 33.4802L4.80448 33.4948L4.82129 32.9951ZM4.38574 32.9805L4.41968 32.4816C3.51046 32.4198 2.81492 32.1472 2.33038 31.7381L2.00781 32.1201L1.68524 32.5021C2.36781 33.0785 3.2816 33.4065 4.35181 33.4793L4.38574 32.9805ZM2.00781 32.1201L2.33041 31.7381C1.81066 31.2992 1.53601 30.705 1.50329 30.0465L1.00391 30.0713L0.504522 30.0961C0.550227 31.016 0.942082 31.8746 1.68521 32.5021L2.00781 32.1201ZM1.00391 30.0713L1.50376 30.059L1.49985 29.8998L1 29.9121L0.50015 29.9244L0.504057 30.0836L1.00391 30.0713ZM1 29.9121H1.5V4.94434H1H0.5V29.9121H1ZM1 4.94434L1.5 4.9444C1.50012 3.98456 1.98614 3.13491 2.7959 2.51017C3.60915 1.88274 4.73178 1.5 5.92871 1.5V1V0.5C4.52835 0.5 3.18676 0.945593 2.18506 1.71841C1.17987 2.49392 0.500172 3.61644 0.5 4.94427L1 4.94434ZM5.92871 1V1.5H31.1709V1V0.5H5.92871V1ZM31.1709 1L31.1503 1.49958L31.3163 1.50641L31.3369 1.00684L31.3575 0.507259L31.1915 0.500423L31.1709 1ZM4.82129 27.8301L4.85455 27.3312L4.8399 27.3302L4.80664 27.8291L4.77338 28.328L4.78803 28.329L4.82129 27.8301ZM4.80664 27.8291L4.80541 27.3291C3.70613 27.3318 2.88155 27.621 2.3309 28.0856L2.65332 28.4678L2.97574 28.8499C3.30139 28.5752 3.87687 28.3314 4.80787 28.3291L4.80664 27.8291ZM2.65332 28.4678L2.33073 28.0858C1.77754 28.5529 1.50014 29.1987 1.5 29.912L2 29.9121L2.5 29.9122C2.50009 29.4736 2.66234 29.1146 2.97591 28.8498L2.65332 28.4678ZM2 29.9121H1.5C1.5 30.6257 1.77749 31.2713 2.33075 31.7385L2.65332 31.3564L2.97589 30.9744C2.66219 30.7095 2.5 30.3508 2.5 29.9121H2ZM2.65332 31.3564L2.33081 31.7385C2.81481 32.1471 3.51137 32.4196 4.41821 32.4813L4.45215 31.9824L4.48609 31.4836C3.74055 31.4329 3.26203 31.2159 2.97583 30.9744L2.65332 31.3564ZM4.45215 31.9824L4.43496 32.4821L4.8041 32.4948L4.82129 31.9951L4.83847 31.4954L4.46933 31.4827L4.45215 31.9824ZM4.82129 31.9951V32.4951H31.999V31.9951V31.4951H4.82129V31.9951ZM31.999 31.9951H32.499V27.8291H31.999H31.499V31.9951H31.999ZM31.999 27.8291V27.3291H4.83008V27.8291V28.3291H31.999V27.8291ZM4.83008 27.8291L4.77486 27.3322L4.76607 27.3331L4.82129 27.8301L4.8765 28.327L4.88529 28.326L4.83008 27.8291ZM2 27.7109L2.32386 28.0919C2.32741 28.0889 2.33035 28.0863 2.33216 28.0847C2.33388 28.0832 2.33552 28.0817 2.33588 28.0814C2.33662 28.0807 2.33621 28.0811 2.33555 28.0817C2.33486 28.0823 2.33299 28.0839 2.33043 28.0861L2.00781 27.7041L1.6852 27.3221C1.68139 27.3253 1.67823 27.3281 1.67623 27.3298C1.67426 27.3316 1.67252 27.3331 1.67192 27.3336C1.67095 27.3345 1.67127 27.3342 1.67168 27.3339C1.67218 27.3334 1.67383 27.332 1.67614 27.33L2 27.7109ZM2.00781 27.7041L2.33033 28.0862C2.47055 27.9678 2.62682 27.8614 2.79954 27.7689L2.56348 27.3281L2.32741 26.8874C2.09427 27.0122 1.87989 27.1578 1.6853 27.322L2.00781 27.7041ZM2.56348 27.3281L2.79971 26.8875C2.62389 26.7932 2.46744 26.6887 2.33032 26.573L2.00781 26.9551L1.6853 27.3372C1.88234 27.5035 2.09814 27.646 2.32724 27.7688L2.56348 27.3281ZM2.00781 26.9551L2.3304 26.5731C2.33827 26.5797 2.34487 26.5857 2.35005 26.5906C2.35524 26.5955 2.35947 26.5997 2.36252 26.6028C2.36556 26.6059 2.36791 26.6084 2.36917 26.6097C2.37031 26.611 2.37122 26.6119 2.37075 26.6114C2.37069 26.6114 2.3692 26.6098 2.36753 26.608C2.36573 26.6061 2.36284 26.603 2.35926 26.5993C2.35566 26.5957 2.35089 26.5909 2.34518 26.5855C2.33946 26.5801 2.33233 26.5735 2.32392 26.5664L2 26.9473L1.67608 27.3281C1.66834 27.3216 1.66188 27.3156 1.65681 27.3108C1.65175 27.306 1.64763 27.3019 1.64469 27.2989C1.64175 27.2959 1.63951 27.2935 1.63835 27.2923C1.63732 27.2912 1.63647 27.2903 1.63705 27.2909C1.63723 27.2911 1.63877 27.2928 1.64056 27.2947C1.64247 27.2967 1.64545 27.2999 1.64914 27.3036C1.65285 27.3074 1.65773 27.3122 1.66357 27.3178C1.66942 27.3233 1.67668 27.3299 1.68523 27.3371L2.00781 26.9551ZM2 26.9473H1.5V27.7109H2H2.5V26.9473H2ZM4.45215 22.6758L4.41823 22.1769C3.5106 22.2387 2.81451 22.5124 2.33082 22.9206L2.65332 23.3027L2.97582 23.6848C3.26245 23.4429 3.74094 23.2253 4.48607 23.1746L4.45215 22.6758ZM2.65332 23.3027L2.33075 22.9207C1.77751 23.3878 1.5 24.0334 1.5 24.7471H2H2.5C2.5 24.3083 2.6622 23.9496 2.97589 23.6848L2.65332 23.3027ZM2 24.7471L1.5 24.7472C1.50012 25.4606 1.77755 26.1064 2.33075 26.5734L2.65332 26.1914L2.97589 25.8094C2.66234 25.5446 2.50007 25.1857 2.5 24.747L2 24.7471ZM2.65332 26.1914L2.33092 26.5736C2.81481 26.9818 3.51154 27.2546 4.41822 27.3162L4.45215 26.8174L4.48608 26.3185C3.7409 26.2678 3.26203 26.0508 2.97572 25.8092L2.65332 26.1914ZM4.45215 26.8174L4.43594 27.3171L4.79727 27.3288L4.81348 26.8291L4.82968 26.3294L4.46836 26.3176L4.45215 26.8174ZM4.81348 26.8291V27.3291H31.999V26.8291V26.3291H4.81348V26.8291ZM31.999 26.8291H32.499V22.6641H31.999H31.499V26.8291H31.999ZM31.999 22.6641V22.1641H4.82129V22.6641V23.1641H31.999V22.6641ZM4.82129 22.6641L4.80542 22.1643L4.43628 22.176L4.45215 22.6758L4.46801 23.1755L4.83715 23.1638L4.82129 22.6641ZM5.92871 2V1.5C3.47781 1.5 1.50039 3.04673 1.5 4.94423L2 4.94434L2.5 4.94444C2.50024 3.80994 3.79247 2.5 5.92871 2.5V2ZM2 4.94434H1.5V22.5449H2H2.5V4.94434H2ZM2 22.5449L2.32387 22.9259C2.3274 22.9229 2.33033 22.9203 2.33225 22.9186C2.33405 22.917 2.33574 22.9155 2.33608 22.9152C2.33679 22.9146 2.33629 22.915 2.33553 22.9157C2.33468 22.9164 2.33285 22.918 2.33038 22.9201L2.00781 22.5381L1.68525 22.156C1.68148 22.1592 1.67833 22.162 1.67619 22.1639C1.67412 22.1657 1.67232 22.1673 1.67173 22.1678C1.67076 22.1687 1.67115 22.1683 1.67164 22.1679C1.67227 22.1673 1.6739 22.1659 1.67613 22.164L2 22.5449ZM2.00781 22.5381L2.33032 22.9202C2.88371 22.4531 3.71415 22.1641 4.8213 22.1641L4.82129 21.6641L4.82128 21.1641C3.54732 21.1641 2.4658 21.4972 1.6853 22.156L2.00781 22.5381ZM4.82129 21.6641V22.1641H31.999V21.6641V21.1641H4.82129V21.6641ZM31.999 21.6641H32.499V2.5332H31.999H31.499V21.6641H31.999ZM31.999 2.5332L32.499 2.53216C32.498 2.0208 31.9956 1.55813 31.315 1.5054L31.2764 2.00391L31.2377 2.50241C31.3892 2.51415 31.4633 2.56343 31.4925 2.58978C31.5089 2.60453 31.5137 2.61418 31.5129 2.61252C31.5124 2.61158 31.5095 2.60582 31.5064 2.59463C31.5035 2.58398 31.4991 2.56348 31.499 2.53425L31.999 2.5332ZM31.2764 2.00391L31.2949 1.50425L31.1894 1.50034L31.1709 2L31.1524 2.49966L31.2579 2.50356L31.2764 2.00391ZM31.1709 2V1.5H5.92871V2V2.5H31.1709V2ZM23.7432 7.89844L23.6425 8.38821C23.6408 8.38786 23.6408 8.38723 23.6416 8.38812C23.6418 8.3884 23.6418 8.38846 23.6417 8.38818C23.6415 8.38768 23.6416 8.38762 23.6416 8.38867H24.1416H24.6416C24.6416 7.90628 24.3004 7.5025 23.8438 7.40867L23.7432 7.89844ZM24.1416 8.38867L23.6416 8.38821C23.6416 8.38929 23.6415 8.38931 23.6416 8.38894C23.6417 8.38878 23.6416 8.38894 23.6413 8.38928C23.6405 8.39031 23.6406 8.38954 23.6426 8.38912L23.7432 8.87891L23.8437 9.36869C24.3008 9.27484 24.6412 8.87051 24.6416 8.38913L24.1416 8.38867ZM23.7432 8.87891L23.6953 8.3812L23.5937 8.39097L23.6416 8.88867L23.6895 9.38638L23.791 9.37661L23.7432 8.87891ZM23.6416 8.88867V8.38867H10.3564V8.88867V9.38867H23.6416V8.88867ZM10.3564 8.88867L10.3565 8.38867L10.3564 8.38821L9.85645 8.38867L9.35645 8.38913C9.35695 8.9404 9.80389 9.38865 10.3564 9.38867L10.3564 8.88867ZM9.85645 8.38867H10.3564H10.3565L10.3564 7.88867L10.3564 7.38867C9.80419 7.3887 9.35645 7.83637 9.35645 8.38867H9.85645ZM10.3564 7.88867V8.38867H23.6416V7.88867V7.38867H10.3564V7.88867ZM23.6416 7.88867L23.5937 8.38638L23.6953 8.39614L23.7432 7.89844L23.791 7.40073L23.6895 7.39097L23.6416 7.88867Z" fill="black"/>
</svg>
