<svg width="34" height="34" viewBox="0 0 34 34" fill="none" xmlns="http://www.w3.org/2000/svg">
<path d="M1 18.4545V17C1 15.8427 1.38901 14.7328 2.08145 13.9144C2.77389 13.0961 3.71305 12.6364 4.69231 12.6364H29.3077C30.287 12.6364 31.2261 13.0961 31.9185 13.9144C32.611 14.7328 33 15.8427 33 17V18.4545M18.7395 5.96485L15.2605 1.85333C15.032 1.58289 14.7606 1.36833 14.4618 1.22191C14.163 1.07549 13.8428 1.00008 13.5194 1H4.69231C3.71305 1 2.77389 1.45974 2.08145 2.27808C1.38901 3.09642 1 4.20633 1 5.36364V28.6364C1 29.7937 1.38901 30.9036 2.08145 31.7219C2.77389 32.5403 3.71305 33 4.69231 33H29.3077C30.287 33 31.2261 32.5403 31.9185 31.7219C32.611 30.9036 33 29.7937 33 28.6364V11.1818C33 10.0245 32.611 8.9146 31.9185 8.09626C31.2261 7.27792 30.287 6.81818 29.3077 6.81818H20.4806C19.828 6.8175 19.2007 6.51056 18.7395 5.96485Z" stroke="black" stroke-width="2" stroke-linecap="round" stroke-linejoin="round"/>
</svg>
